AmstelvarAlpha-GRAD-max.ufo
<glyph name="exclam" format="1">
  <advance width="604"/>
  <unicode hex="0021"/>
  <outline>
    <contour>
      <point x="158" y="144" type="qcurve" smooth="yes"/>
      <point x="158" y="213"/>
      <point x="255" y="307"/>
      <point x="331" y="307" type="qcurve" smooth="yes"/>
      <point x="407" y="307"/>
      <point x="504" y="212"/>
      <point x="504" y="144" type="qcurve" smooth="yes"/>
      <point x="504" y="75"/>
      <point x="408" y="-22"/>
      <point x="331" y="-22" type="qcurve" smooth="yes"/>
      <point x="255" y="-22"/>
      <point x="158" y="76"/>
    </contour>
    <contour>
      <point x="183" y="1517" type="line"/>
      <point x="479" y="1517" type="line"/>
      <point x="467" y="1108" type="line"/>
      <point x="390" y="800" type="line"/>
      <point x="377" y="480" type="line"/>
      <point x="283" y="480" type="line"/>
      <point x="270" y="800" type="line"/>
      <point x="195" y="1108" type="line"/>
    </contour>
  </outline>
</glyph>
<glyph name="quotedbl" format="1">
  <advance width="974"/>
  <unicode hex="0022"/>
  <outline>
    <contour>
      <point x="298" y="904" type="line"/>
      <point x="168" y="1390" type="line"/>
      <point x="168" y="1450"/>
      <point x="245" y="1558"/>
      <point x="325" y="1558" type="qcurve" smooth="yes"/>
      <point x="405" y="1558"/>
      <point x="482" y="1450"/>
      <point x="482" y="1390" type="qcurve"/>
      <point x="351" y="904" type="line"/>
    </contour>
    <contour>
      <point x="718" y="904" type="line"/>
      <point x="588" y="1390" type="line"/>
      <point x="588" y="1450"/>
      <point x="665" y="1558"/>
      <point x="745" y="1558" type="qcurve" smooth="yes"/>
      <point x="825" y="1558"/>
      <point x="902" y="1450"/>
      <point x="902" y="1390" type="qcurve"/>
      <point x="770" y="904" type="line"/>
    </contour>
  </outline>
</glyph>
<glyph name="numbersign" format="1">
  <advance width="1324"/>
  <unicode hex="0023"/>
  <outline>
    <contour>
      <point x="20" y="406" type="line"/>
      <point x="20" y="639" type="line"/>
      <point x="1206" y="639" type="line"/>
      <point x="1206" y="406" type="line"/>
    </contour>
    <contour>
      <point x="120" y="845" type="line"/>
      <point x="120" y="1078" type="line"/>
      <point x="1306" y="1078" type="line"/>
      <point x="1306" y="845" type="line"/>
    </contour>
    <contour>
      <point x="98" y="-57" type="line"/>
      <point x="665" y="1547" type="line"/>
      <point x="775" y="1518" type="line"/>
      <point x="208" y="-86" type="line"/>
    </contour>
    <contour>
      <point x="559" y="-57" type="line"/>
      <point x="1125" y="1547" type="line"/>
      <point x="1235" y="1518" type="line"/>
      <point x="669" y="-86" type="line"/>
    </contour>
  </outline>
</glyph>
<glyph name="dollar" format="1">
  <advance width="1107"/>
  <unicode hex="0024"/>
  <outline>
    <contour>
      <point x="56" y="272" type="qcurve"/>
      <point x="167" y="344" type="line"/>
      <point x="219" y="248"/>
      <point x="415" y="122"/>
      <point x="559" y="122" type="qcurve" smooth="yes"/>
      <point x="696" y="122"/>
      <point x="845" y="249"/>
      <point x="845" y="351" type="qcurve" smooth="yes"/>
      <point x="845" y="478"/>
      <point x="668" y="632"/>
      <point x="498" y="690" type="qcurve" smooth="yes"/>
      <point x="299" y="758"/>
      <point x="106" y="963"/>
      <point x="106" y="1123" type="qcurve" smooth="yes"/>
      <point x="106" y="1289"/>
      <point x="341" y="1501"/>
      <point x="547" y="1501" type="qcurve" smooth="yes"/>
      <point x="683" y="1501"/>
      <point x="900" y="1430"/>
      <point x="982" y="1362" type="qcurve"/>
      <point x="907" y="1256" type="line"/>
      <point x="842" y="1305"/>
      <point x="669" y="1371"/>
      <point x="560" y="1371" type="qcurve" smooth="yes"/>
      <point x="436" y="1371"/>
      <point x="313" y="1277"/>
      <point x="313" y="1186" type="qcurve" smooth="yes"/>
      <point x="313" y="1102"/>
      <point x="435" y="975"/>
      <point x="629" y="906" type="qcurve" smooth="yes"/>
      <point x="832" y="830"/>
      <point x="1067" y="621"/>
      <point x="1067" y="434" type="qcurve" smooth="yes"/>
      <point x="1067" y="240"/>
      <point x="806" y="1"/>
      <point x="580" y="1" type="qcurve" smooth="yes"/>
      <point x="380" y="1"/>
      <point x="129" y="144"/>
    </contour>
    <contour>
      <point x="482" y="-185" type="line"/>
      <point x="482" y="55" type="line"/>
      <point x="500" y="55" type="line"/>
      <point x="500" y="819" type="line"/>
      <point x="650" y="793" type="line"/>
      <point x="650" y="55" type="line"/>
      <point x="671" y="55" type="line"/>
      <point x="671" y="-145" type="line"/>
    </contour>
    <contour>
      <point x="476" y="1584" type="line"/>
      <point x="665" y="1616" type="line"/>
      <point x="665" y="1418" type="line"/>
      <point x="644" y="1418" type="line"/>
      <point x="644" y="794" type="line"/>
      <point x="495" y="823" type="line"/>
      <point x="495" y="1418" type="line"/>
      <point x="476" y="1418" type="line"/>
    </contour>
  </outline>
</glyph>
<glyph name="percent" format="1">
  <advance width="2038"/>
  <unicode hex="0025"/>
  <outline>
    <contour>
      <point x="31.0" y="1068" type="qcurve" smooth="yes"/>
      <point x="31.0" y="1281"/>
      <point x="279.0" y="1521"/>
      <point x="478.0" y="1521" type="qcurve" smooth="yes"/>
      <point x="678.0" y="1521"/>
      <point x="929.0" y="1302"/>
      <point x="929.0" y="1070" type="qcurve" smooth="yes"/>
      <point x="929.0" y="851"/>
      <point x="683.0" y="602"/>
      <point x="484.0" y="602" type="qcurve" smooth="yes"/>
      <point x="284.0" y="602"/>
      <point x="31.0" y="828"/>
    </contour>
    <contour>
      <point x="376.0" y="1071" type="qcurve" smooth="yes"/>
      <point x="376.0" y="843"/>
      <point x="428.0" y="718"/>
      <point x="478.0" y="718" type="qcurve" smooth="yes"/>
      <point x="531.0" y="718"/>
      <point x="581.0" y="829"/>
      <point x="581.0" y="1066" type="qcurve" smooth="yes"/>
      <point x="581.0" y="1277"/>
      <point x="529.0" y="1401"/>
      <point x="479.0" y="1401" type="qcurve" smooth="yes"/>
      <point x="425.0" y="1401"/>
      <point x="375.0" y="1302"/>
    </contour>
    <contour>
      <point x="611.0" y="19" type="line"/>
      <point x="1283.0" y="1521" type="line"/>
      <point x="1412.0" y="1468" type="line"/>
      <point x="739.0" y="-35" type="line"/>
    </contour>
    <contour>
      <point x="1110.0" y="431" type="qcurve" smooth="yes"/>
      <point x="1110.0" y="646"/>
      <point x="1358.0" y="891"/>
      <point x="1557.0" y="891" type="qcurve" smooth="yes"/>
      <point x="1757.0" y="891"/>
      <point x="2007.0" y="666"/>
      <point x="2007.0" y="433" type="qcurve" smooth="yes"/>
      <point x="2007.0" y="219"/>
      <point x="1762.0" y="-26"/>
      <point x="1562.0" y="-26" type="qcurve" smooth="yes"/>
      <point x="1362.0" y="-26"/>
      <point x="1110.0" y="197"/>
    </contour>
    <contour>
      <point x="1454.0" y="441" type="qcurve" smooth="yes"/>
      <point x="1454.0" y="215"/>
      <point x="1507.0" y="90"/>
      <point x="1558.0" y="90" type="qcurve" smooth="yes"/>
      <point x="1611.0" y="90"/>
      <point x="1660.0" y="193"/>
      <point x="1660.0" y="437" type="qcurve" smooth="yes"/>
      <point x="1660.0" y="647"/>
      <point x="1608.0" y="771"/>
      <point x="1557.0" y="771" type="qcurve" smooth="yes"/>
      <point x="1502.0" y="771"/>
      <point x="1454.0" y="672"/>
    </contour>
  </outline>
</glyph>
<glyph name="ampersand" format="1">
  <advance width="1202"/>
  <unicode hex="0026"/>
  <outline>
    <contour>
      <point x="52" y="389" type="qcurve" smooth="yes"/>
      <point x="52" y="563"/>
      <point x="331" y="767"/>
      <point x="502" y="790" type="qcurve"/>
      <point x="332" y="803"/>
      <point x="140" y="982"/>
      <point x="140" y="1152" type="qcurve" smooth="yes"/>
      <point x="140" y="1320"/>
      <point x="377" y="1517"/>
      <point x="586" y="1517" type="qcurve" smooth="yes"/>
      <point x="720" y="1517"/>
      <point x="925" y="1451"/>
      <point x="997" y="1388" type="qcurve"/>
      <point x="929" y="1270" type="line"/>
      <point x="887" y="1320"/>
      <point x="747" y="1389"/>
      <point x="639" y="1389" type="qcurve" smooth="yes"/>
      <point x="535" y="1389"/>
      <point x="422" y="1261"/>
      <point x="422" y="1152" type="qcurve" smooth="yes"/>
      <point x="422" y="1020"/>
      <point x="576" y="859"/>
      <point x="734" y="859" type="qcurve" smooth="yes"/>
      <point x="776" y="859"/>
      <point x="793" y="849"/>
      <point x="794" y="792" type="qcurve" smooth="yes"/>
      <point x="793" y="753"/>
      <point x="757" y="731"/>
      <point x="701" y="731" type="qcurve" smooth="yes"/>
      <point x="563" y="731"/>
      <point x="359" y="559"/>
      <point x="359" y="400" type="qcurve" smooth="yes"/>
      <point x="359" y="250"/>
      <point x="515" y="102"/>
      <point x="659" y="102" type="qcurve" smooth="yes"/>
      <point x="818" y="102"/>
      <point x="991" y="213"/>
      <point x="1023" y="296" type="qcurve"/>
      <point x="1109" y="230" type="line"/>
      <point x="1027" y="107"/>
      <point x="771" y="-21"/>
      <point x="618" y="-21" type="qcurve" smooth="yes"/>
      <point x="364" y="-21"/>
      <point x="52" y="195"/>
    </contour>
    <contour>
      <point x="886" y="1322" type="line"/>
      <point x="946" y="1487" type="line"/>
      <point x="1043" y="1487" type="line"/>
      <point x="1043" y="1070" type="line"/>
      <point x="934" y="1070" type="line"/>
    </contour>
    <contour>
      <point x="997" y="166" type="line"/>
      <point x="1059" y="480" type="line"/>
      <point x="1169" y="480" type="line"/>
      <point x="1165" y="0" type="line"/>
      <point x="1067" y="0" type="line"/>
    </contour>
  </outline>
</glyph>
<glyph name="quotesingle" format="1">
  <advance width="584"/>
  <unicode hex="0027"/>
  <outline>
    <contour>
      <point x="304" y="904" type="line"/>
      <point x="168" y="1390" type="line"/>
      <point x="168" y="1450"/>
      <point x="248" y="1558"/>
      <point x="331" y="1558" type="qcurve" smooth="yes"/>
      <point x="414" y="1558"/>
      <point x="494" y="1450"/>
      <point x="494" y="1390" type="qcurve"/>
      <point x="357" y="904" type="line"/>
    </contour>
  </outline>
</glyph>
<glyph name="parenleft" format="1">
  <advance width="598"/>
  <unicode hex="0028"/>
  <outline>
    <contour>
      <point x="68" y="665" type="qcurve" smooth="yes"/>
      <point x="68" y="924"/>
      <point x="349" y="1410"/>
      <point x="519" y="1526" type="qcurve"/>
      <point x="610" y="1462" type="line"/>
      <point x="515" y="1336"/>
      <point x="378" y="903"/>
      <point x="378" y="665" type="qcurve" smooth="yes"/>
      <point x="378" y="427"/>
      <point x="511" y="13"/>
      <point x="610" y="-127" type="qcurve"/>
      <point x="526" y="-196" type="line"/>
      <point x="349" y="-63"/>
      <point x="68" y="396"/>
    </contour>
  </outline>
</glyph>
<glyph name="parenright" format="1">
  <advance width="598"/>
  <unicode hex="0029"/>
  <outline>
    <contour>
      <point x="562" y="665" type="qcurve" smooth="yes"/>
      <point x="562" y="396"/>
      <point x="281" y="-63"/>
      <point x="104" y="-196" type="qcurve"/>
      <point x="20" y="-127" type="line"/>
      <point x="119" y="13"/>
      <point x="252" y="427"/>
      <point x="252" y="665" type="qcurve" smooth="yes"/>
      <point x="252" y="903"/>
      <point x="115" y="1336"/>
      <point x="20" y="1462" type="qcurve"/>
      <point x="111" y="1526" type="line"/>
      <point x="280" y="1410"/>
      <point x="562" y="924"/>
    </contour>
  </outline>
</glyph>
<glyph name="asterisk" format="1">
  <advance width="858"/>
  <unicode hex="002A"/>
  <outline>
    <contour>
      <point x="432" y="648" type="qcurve" smooth="yes"/>
      <point x="373" y="648"/>
      <point x="308" y="728"/>
      <point x="324" y="785" type="qcurve" smooth="yes"/>
      <point x="388" y="1010" type="line"/>
      <point x="380" y="1017" type="line"/>
      <point x="212" y="849" type="line" smooth="yes"/>
      <point x="178" y="815"/>
      <point x="73" y="819"/>
      <point x="42" y="875" type="qcurve" smooth="yes"/>
      <point x="10" y="930"/>
      <point x="61" y="1024"/>
      <point x="108" y="1037" type="qcurve" smooth="yes"/>
      <point x="332" y="1094" type="line"/>
      <point x="330" y="1104" type="line"/>
      <point x="108" y="1164" type="line" smooth="yes"/>
      <point x="61" y="1177"/>
      <point x="10" y="1271"/>
      <point x="42" y="1327" type="qcurve" smooth="yes"/>
      <point x="73" y="1382"/>
      <point x="178" y="1387"/>
      <point x="212" y="1353" type="qcurve" smooth="yes"/>
      <point x="378" y="1182" type="line"/>
      <point x="386" y="1189" type="line"/>
      <point x="324" y="1416" type="line" smooth="yes"/>
      <point x="308" y="1476"/>
      <point x="375" y="1553"/>
      <point x="432" y="1553" type="qcurve" smooth="yes"/>
      <point x="491" y="1553"/>
      <point x="556" y="1473"/>
      <point x="540" y="1416" type="qcurve" smooth="yes"/>
      <point x="476" y="1191" type="line"/>
      <point x="486" y="1184" type="line"/>
      <point x="652" y="1353" type="line" smooth="yes"/>
      <point x="686" y="1386"/>
      <point x="791" y="1382"/>
      <point x="822" y="1326" type="qcurve" smooth="yes"/>
      <point x="854" y="1271"/>
      <point x="803" y="1177"/>
      <point x="757" y="1164" type="qcurve" smooth="yes"/>
      <point x="532" y="1107" type="line"/>
      <point x="533" y="1097" type="line"/>
      <point x="757" y="1037" type="line" smooth="yes"/>
      <point x="803" y="1024"/>
      <point x="854" y="930"/>
      <point x="822" y="874" type="qcurve" smooth="yes"/>
      <point x="791" y="819"/>
      <point x="686" y="814"/>
      <point x="652" y="848" type="qcurve" smooth="yes"/>
      <point x="488" y="1017" type="line"/>
      <point x="479" y="1010" type="line"/>
      <point x="541" y="785" type="line" smooth="yes"/>
      <point x="556" y="728"/>
      <point x="495" y="648"/>
    </contour>
  </outline>
</glyph>
<glyph name="plus" format="1">
  <advance width="1024"/>
  <unicode hex="002B"/>
  <outline>
    <contour>
      <point x="58.0" y="477" type="line"/>
      <point x="58.0" y="787" type="line"/>
      <point x="966.0" y="787" type="line"/>
      <point x="966.0" y="477" type="line"/>
    </contour>
    <contour>
      <point x="321.0" y="212" type="line"/>
      <point x="321.0" y="1052" type="line"/>
      <point x="703.0" y="1052" type="line"/>
      <point x="703.0" y="212" type="line"/>
    </contour>
  </outline>
</glyph>
<glyph name="comma" format="1">
  <advance width="584"/>
  <unicode hex="002C"/>
  <outline>
    <contour>
      <point x="140" y="-237" type="line"/>
      <point x="190" y="-204"/>
      <point x="309" y="-83"/>
      <point x="334" y="-4" type="qcurve"/>
      <point x="238" y="-5"/>
      <point x="144" y="87"/>
      <point x="144" y="156" type="qcurve" smooth="yes"/>
      <point x="144" y="225"/>
      <point x="243" y="326"/>
      <point x="321" y="326" type="qcurve" smooth="yes"/>
      <point x="395" y="326"/>
      <point x="498" y="235"/>
      <point x="498" y="142" type="qcurve" smooth="yes"/>
      <point x="498" y="8"/>
      <point x="309" y="-236"/>
      <point x="189" y="-296" type="qcurve"/>
    </contour>
  </outline>
</glyph>
<glyph name="hyphen" format="1">
  <advance width="739"/>
  <unicode hex="002D"/>
  <outline>
    <contour>
      <point x="80" y="523" type="line"/>
      <point x="80" y="741" type="line"/>
      <point x="384" y="737" type="line"/>
      <point x="687" y="741" type="line"/>
      <point x="687" y="523" type="line"/>
      <point x="384" y="527" type="line"/>
    </contour>
  </outline>
</glyph>
<glyph name="period" format="1">
  <advance width="584"/>
  <unicode hex="002E"/>
  <outline>
    <contour>
      <point x="148" y="153" type="qcurve" smooth="yes"/>
      <point x="148" y="223"/>
      <point x="249" y="328"/>
      <point x="328" y="328" type="qcurve" smooth="yes"/>
      <point x="407" y="328"/>
      <point x="508" y="223"/>
      <point x="508" y="153" type="qcurve" smooth="yes"/>
      <point x="508" y="83"/>
      <point x="407" y="-22"/>
      <point x="328" y="-22" type="qcurve" smooth="yes"/>
      <point x="249" y="-22"/>
      <point x="148" y="83"/>
    </contour>
  </outline>
</glyph>
<glyph name="slash" format="1">
  <advance width="656"/>
  <unicode hex="002F"/>
  <outline>
    <contour>
      <point x="-40" y="-115" type="line"/>
      <point x="474" y="1548" type="line"/>
      <point x="665" y="1495" type="line"/>
      <point x="152" y="-166" type="line"/>
    </contour>
  </outline>
</glyph>
<glyph name="zero" format="1">
  <advance width="1176"/>
  <unicode hex="0030"/>
  <outline>
    <contour>
      <point x="74" y="750" type="qcurve" smooth="yes"/>
      <point x="74" y="1130"/>
      <point x="373" y="1520"/>
      <point x="612" y="1520" type="qcurve" smooth="yes"/>
      <point x="856" y="1520"/>
      <point x="1148" y="1134"/>
      <point x="1148" y="754" type="qcurve" smooth="yes"/>
      <point x="1148" y="388"/>
      <point x="861" y="-27"/>
      <point x="617" y="-27" type="qcurve" smooth="yes"/>
      <point x="375" y="-27"/>
      <point x="74" y="360"/>
    </contour>
    <contour>
      <point x="383" y="767" type="qcurve" smooth="yes"/>
      <point x="384" y="401"/>
      <point x="502" y="90"/>
      <point x="610" y="90" type="qcurve" smooth="yes"/>
      <point x="727" y="90"/>
      <point x="837" y="368"/>
      <point x="838" y="749" type="qcurve" smooth="yes"/>
      <point x="840" y="1113"/>
      <point x="719" y="1390"/>
      <point x="612" y="1390" type="qcurve" smooth="yes"/>
      <point x="497" y="1390"/>
      <point x="382" y="1135"/>
    </contour>
  </outline>
</glyph>
<glyph name="one" format="1">
  <advance width="840"/>
  <unicode hex="0031"/>
  <outline>
    <contour>
      <point x="84" y="0" type="line"/>
      <point x="84" y="94" type="line"/>
      <point x="298" y="129" type="line"/>
      <point x="298" y="754" type="line"/>
      <point x="296" y="1352" type="line"/>
      <point x="82" y="1386" type="line"/>
      <point x="82" y="1490" type="line"/>
      <point x="568" y="1513" type="line"/>
      <point x="600" y="1478" type="line"/>
      <point x="594" y="754" type="line"/>
      <point x="594" y="129" type="line"/>
      <point x="807" y="94" type="line"/>
      <point x="807" y="0" type="line"/>
    </contour>
  </outline>
</glyph>
<glyph name="two" format="1">
  <advance width="966"/>
  <unicode hex="0032"/>
  <outline>
    <contour>
      <point x="12" y="0" type="line"/>
      <point x="12" y="124" type="line"/>
      <point x="23" y="255"/>
      <point x="174" y="515"/>
      <point x="313" y="649" type="qcurve" smooth="yes"/>
      <point x="457" y="787"/>
      <point x="565" y="996"/>
      <point x="565" y="1134" type="qcurve" smooth="yes"/>
      <point x="565" y="1266"/>
      <point x="450" y="1389"/>
      <point x="353" y="1389" type="qcurve" smooth="yes"/>
      <point x="255" y="1389"/>
      <point x="102" y="1298"/>
      <point x="36" y="1223" type="qcurve"/>
      <point x="36" y="1351" type="line"/>
      <point x="92" y="1417"/>
      <point x="298" y="1520"/>
      <point x="474" y="1520" type="qcurve" smooth="yes"/>
      <point x="684" y="1520"/>
      <point x="912" y="1319"/>
      <point x="912" y="1137" type="qcurve" smooth="yes"/>
      <point x="912" y="934"/>
      <point x="672" y="662"/>
      <point x="508" y="572" type="qcurve" smooth="yes"/>
      <point x="361" y="487"/>
      <point x="221" y="327"/>
      <point x="193" y="241" type="qcurve"/>
      <point x="200" y="226" type="line"/>
      <point x="959" y="226" type="line"/>
      <point x="959" y="0" type="line"/>
    </contour>
  </outline>
</glyph>
<glyph name="three" format="1">
  <advance width="953"/>
  <unicode hex="0033"/>
  <outline>
    <contour>
      <point x="4" y="115" type="qcurve"/>
      <point x="4" y="236" type="line"/>
      <point x="72" y="169"/>
      <point x="252" y="102"/>
      <point x="351" y="102" type="qcurve" smooth="yes"/>
      <point x="459" y="102"/>
      <point x="592" y="240"/>
      <point x="592" y="407" type="qcurve" smooth="yes"/>
      <point x="592" y="574"/>
      <point x="404" y="728"/>
      <point x="260" y="728" type="qcurve" smooth="yes"/>
      <point x="220" y="728" type="line"/>
      <point x="193" y="829" type="line"/>
      <point x="279" y="834" type="line" smooth="yes"/>
      <point x="416" y="841"/>
      <point x="566" y="996"/>
      <point x="566" y="1160" type="qcurve" smooth="yes"/>
      <point x="566" y="1293"/>
      <point x="452" y="1403"/>
      <point x="358" y="1403" type="qcurve" smooth="yes"/>
      <point x="272" y="1403"/>
      <point x="133" y="1349"/>
      <point x="52" y="1285" type="qcurve"/>
      <point x="52" y="1392" type="line"/>
      <point x="124" y="1457"/>
      <point x="322" y="1520"/>
      <point x="484" y="1520" type="qcurve" smooth="yes"/>
      <point x="671" y="1520"/>
      <point x="892" y="1341"/>
      <point x="892" y="1185" type="qcurve" smooth="yes"/>
      <point x="892" y="1025"/>
      <point x="717" y="847"/>
      <point x="546" y="806" type="qcurve"/>
      <point x="546" y="799" type="line"/>
      <point x="713" y="777"/>
      <point x="931" y="577"/>
      <point x="931" y="397" type="qcurve" smooth="yes"/>
      <point x="931" y="201"/>
      <point x="673" y="-24"/>
      <point x="457" y="-24" type="qcurve" smooth="yes"/>
      <point x="289" y="-24"/>
      <point x="67" y="53"/>
    </contour>
  </outline>
</glyph>
<glyph name="four" format="1">
  <advance width="1170"/>
  <unicode hex="0034"/>
  <outline>
    <contour>
      <point x="26" y="419" type="line"/>
      <point x="6" y="537" type="line"/>
      <point x="660" y="1508" type="line"/>
      <point x="880" y="1508" type="line"/>
      <point x="912" y="1476" type="line"/>
      <point x="907" y="555" type="line"/>
      <point x="1170" y="555" type="line"/>
      <point x="1170" y="446" type="line"/>
      <point x="906" y="436" type="line"/>
      <point x="906" y="129" type="line"/>
      <point x="1089" y="94" type="line"/>
      <point x="1089" y="0" type="line"/>
      <point x="420" y="0" type="line"/>
      <point x="420" y="94" type="line"/>
      <point x="610" y="129" type="line"/>
      <point x="610" y="430" type="line"/>
    </contour>
    <contour>
      <point x="181" y="555" type="line"/>
      <point x="601" y="555" type="line"/>
      <point x="607" y="1203" type="line"/>
      <point x="178" y="569" type="line"/>
    </contour>
  </outline>
</glyph>
<glyph name="five" format="1">
  <advance width="974"/>
  <unicode hex="0035"/>
  <outline>
    <contour>
      <point x="2" y="110" type="qcurve"/>
      <point x="2" y="236" type="line"/>
      <point x="77" y="168"/>
      <point x="263" y="107"/>
      <point x="379" y="107" type="qcurve" smooth="yes"/>
      <point x="491" y="107"/>
      <point x="631" y="278"/>
      <point x="631" y="454" type="qcurve" smooth="yes"/>
      <point x="631" y="625"/>
      <point x="424" y="784"/>
      <point x="249" y="784" type="qcurve" smooth="yes"/>
      <point x="116" y="784" type="line"/>
      <point x="176" y="889" type="line"/>
      <point x="411" y="922" type="line"/>
      <point x="694" y="922"/>
      <point x="944" y="683"/>
      <point x="944" y="478" type="qcurve" smooth="yes"/>
      <point x="944" y="236"/>
      <point x="689" y="-25"/>
      <point x="478" y="-25" type="qcurve" smooth="yes"/>
      <point x="304" y="-25"/>
      <point x="70" y="48"/>
    </contour>
    <contour>
      <point x="116" y="784" type="qcurve"/>
      <point x="172" y="1467" type="line"/>
      <point x="199" y="1500" type="line"/>
      <point x="879" y="1500" type="line"/>
      <point x="867" y="1264" type="line"/>
      <point x="286" y="1264" type="line"/>
      <point x="277" y="1253" type="line"/>
      <point x="246" y="991"/>
      <point x="203" y="784"/>
    </contour>
  </outline>
</glyph>
<glyph name="six" format="1">
  <advance width="1176"/>
  <unicode hex="0036"/>
  <outline>
    <contour>
      <point x="18.223880597014926" y="666" type="qcurve" smooth="yes"/>
      <point x="18.223880597014926" y="1121"/>
      <point x="421.22388059701495" y="1537"/>
      <point x="959.223880597015" y="1538" type="qcurve"/>
      <point x="959.223880597015" y="1414" type="line"/>
      <point x="724.223880597015" y="1401"/>
      <point x="516.223880597015" y="1118"/>
      <point x="516.223880597015" y="668" type="qcurve" smooth="yes"/>
      <point x="516.223880597015" y="190"/>
      <point x="564.223880597015" y="101"/>
      <point x="609.223880597015" y="101" type="qcurve" smooth="yes"/>
      <point x="649.223880597015" y="101"/>
      <point x="693.223880597015" y="168"/>
      <point x="693.223880597015" y="464" type="qcurve" smooth="yes"/>
      <point x="693.223880597015" y="747"/>
      <point x="651.223880597015" y="832"/>
      <point x="602.223880597015" y="832" type="qcurve" smooth="yes"/>
      <point x="583.223880597015" y="832"/>
      <point x="550.223880597015" y="825"/>
      <point x="541.223880597015" y="822" type="qcurve"/>
      <point x="537.223880597015" y="894" type="line"/>
      <point x="555.223880597015" y="921"/>
      <point x="671.223880597015" y="968"/>
      <point x="752.223880597015" y="968" type="qcurve" smooth="yes"/>
      <point x="955.223880597015" y="968"/>
      <point x="1161.2238805970148" y="735"/>
      <point x="1161.2238805970148" y="495" type="qcurve" smooth="yes"/>
      <point x="1161.2238805970148" y="242"/>
      <point x="906.223880597015" y="-22"/>
      <point x="617.223880597015" y="-22" type="qcurve" smooth="yes"/>
      <point x="328.22388059701495" y="-22"/>
      <point x="18.223880597014926" y="277"/>
    </contour>
  </outline>
</glyph>
<glyph name="seven" format="1">
  <advance width="965"/>
  <unicode hex="0037"/>
  <outline>
    <contour>
      <point x="24" y="1081" type="line"/>
      <point x="24" y="1500" type="line"/>
      <point x="970" y="1500" type="line"/>
      <point x="970" y="1380" type="line"/>
      <point x="696" y="656" type="line"/>
      <point x="440" y="-44" type="line"/>
      <point x="266" y="-44" type="line"/>
      <point x="266" y="29" type="line"/>
      <point x="574" y="679" type="line"/>
      <point x="753" y="1247" type="line"/>
      <point x="726" y="1268" type="line"/>
      <point x="169" y="1268" type="line"/>
      <point x="136" y="1081" type="line"/>
    </contour>
  </outline>
</glyph>
<glyph name="eight" format="1">
  <advance width="1056"/>
  <unicode hex="0038"/>
  <outline>
    <contour>
      <point x="62" y="364" type="qcurve" smooth="yes"/>
      <point x="62" y="535"/>
      <point x="293" y="764"/>
      <point x="428" y="828" type="qcurve"/>
      <point x="525" y="770" type="line"/>
      <point x="446" y="706"/>
      <point x="320" y="502"/>
      <point x="320" y="374" type="qcurve" smooth="yes"/>
      <point x="320" y="229"/>
      <point x="434" y="90"/>
      <point x="539" y="90" type="qcurve" smooth="yes"/>
      <point x="641" y="90"/>
      <point x="750" y="223"/>
      <point x="750" y="359" type="qcurve" smooth="yes"/>
      <point x="750" y="472"/>
      <point x="622" y="619"/>
      <point x="481" y="699" type="qcurve" smooth="yes"/>
      <point x="294" y="799"/>
      <point x="149" y="997"/>
      <point x="149" y="1166" type="qcurve" smooth="yes"/>
      <point x="149" y="1328"/>
      <point x="371" y="1520"/>
      <point x="552" y="1520" type="qcurve" smooth="yes"/>
      <point x="735" y="1520"/>
      <point x="938" y="1356"/>
      <point x="938" y="1214" type="qcurve" smooth="yes"/>
      <point x="938" y="1083"/>
      <point x="768" y="878"/>
      <point x="647" y="802" type="qcurve"/>
      <point x="547" y="856" type="line"/>
      <point x="621" y="923"/>
      <point x="706" y="1086"/>
      <point x="706" y="1197" type="qcurve" smooth="yes"/>
      <point x="706" y="1300"/>
      <point x="622" y="1403"/>
      <point x="545" y="1403" type="qcurve" smooth="yes"/>
      <point x="465" y="1403"/>
      <point x="384" y="1298"/>
      <point x="384" y="1208" type="qcurve" smooth="yes"/>
      <point x="384" y="1111"/>
      <point x="478" y="990"/>
      <point x="661" y="896" type="qcurve" smooth="yes"/>
      <point x="835" y="810"/>
      <point x="1036" y="575"/>
      <point x="1036" y="397" type="qcurve" smooth="yes"/>
      <point x="1036" y="214"/>
      <point x="774" y="-24"/>
      <point x="547" y="-24" type="qcurve" smooth="yes"/>
      <point x="320" y="-24"/>
      <point x="62" y="195"/>
    </contour>
  </outline>
</glyph>
<glyph name="nine" format="1">
  <advance width="1176"/>
  <unicode hex="0039"/>
  <outline>
    <contour>
      <point x="14.776119402985074" y="1004" type="qcurve" smooth="yes"/>
      <point x="14.776119402985074" y="1257"/>
      <point x="269.77611940298505" y="1521"/>
      <point x="558.776119402985" y="1521" type="qcurve" smooth="yes"/>
      <point x="847.776119402985" y="1521"/>
      <point x="1157.7761194029852" y="1222"/>
      <point x="1157.7761194029852" y="833" type="qcurve" smooth="yes"/>
      <point x="1157.7761194029852" y="381"/>
      <point x="752.776119402985" y="-30"/>
      <point x="200.77611940298507" y="-20" type="qcurve"/>
      <point x="200.77611940298507" y="103" type="line"/>
      <point x="451.77611940298505" y="112"/>
      <point x="659.776119402985" y="384"/>
      <point x="658.776119402985" y="831" type="qcurve" smooth="yes"/>
      <point x="658.776119402985" y="1309"/>
      <point x="611.776119402985" y="1399"/>
      <point x="566.776119402985" y="1399" type="qcurve" smooth="yes"/>
      <point x="526.776119402985" y="1399"/>
      <point x="481.77611940298505" y="1331"/>
      <point x="481.77611940298505" y="1035" type="qcurve" smooth="yes"/>
      <point x="481.77611940298505" y="752"/>
      <point x="524.776119402985" y="667"/>
      <point x="573.776119402985" y="667" type="qcurve" smooth="yes"/>
      <point x="592.776119402985" y="667"/>
      <point x="625.776119402985" y="674"/>
      <point x="634.776119402985" y="677" type="qcurve"/>
      <point x="638.776119402985" y="605" type="line"/>
      <point x="620.776119402985" y="579"/>
      <point x="504.77611940298505" y="531"/>
      <point x="423.77611940298505" y="531" type="qcurve" smooth="yes"/>
      <point x="220.77611940298507" y="531"/>
      <point x="14.776119402985074" y="764"/>
    </contour>
  </outline>
</glyph>
<glyph name="colon" format="1">
  <advance width="664"/>
  <unicode hex="003A"/>
  <outline>
    <contour>
      <point x="188" y="143" type="qcurve" smooth="yes"/>
      <point x="188" y="205"/>
      <point x="294" y="284"/>
      <point x="371" y="284" type="qcurve" smooth="yes"/>
      <point x="454" y="284"/>
      <point x="553" y="205"/>
      <point x="553" y="143" type="qcurve" smooth="yes"/>
      <point x="553" y="78"/>
      <point x="457" y="-22"/>
      <point x="371" y="-22" type="qcurve" smooth="yes"/>
      <point x="288" y="-22"/>
      <point x="188" y="78"/>
    </contour>
    <contour>
      <point x="189" y="875" type="qcurve"/>
      <point x="189" y="937"/>
      <point x="288" y="1035"/>
      <point x="371" y="1035" type="qcurve" smooth="yes"/>
      <point x="451" y="1035"/>
      <point x="553" y="937"/>
      <point x="553" y="875" type="qcurve" smooth="yes"/>
      <point x="553" y="811"/>
      <point x="448" y="731"/>
      <point x="371" y="731" type="qcurve" smooth="yes"/>
      <point x="294" y="731"/>
      <point x="188" y="811"/>
    </contour>
  </outline>
</glyph>
<glyph name="semicolon" format="1">
  <advance width="656"/>
  <unicode hex="003B"/>
  <outline>
    <contour>
      <point x="180" y="-237" type="line"/>
      <point x="230" y="-205"/>
      <point x="349" y="-83"/>
      <point x="375" y="-10" type="qcurve"/>
      <point x="280" y="-9"/>
      <point x="187" y="77"/>
      <point x="187" y="146" type="qcurve" smooth="yes"/>
      <point x="187" y="204"/>
      <point x="283" y="283"/>
      <point x="365" y="283" type="qcurve" smooth="yes"/>
      <point x="446" y="283"/>
      <point x="544" y="212"/>
      <point x="544" y="137" type="qcurve" smooth="yes"/>
      <point x="544" y="11"/>
      <point x="349" y="-236"/>
      <point x="229" y="-296" type="qcurve"/>
    </contour>
    <contour>
      <point x="185" y="875" type="qcurve"/>
      <point x="185" y="937"/>
      <point x="284" y="1035"/>
      <point x="366" y="1035" type="qcurve" smooth="yes"/>
      <point x="447" y="1035"/>
      <point x="549" y="937"/>
      <point x="549" y="875" type="qcurve" smooth="yes"/>
      <point x="549" y="811"/>
      <point x="444" y="731"/>
      <point x="366" y="731" type="qcurve" smooth="yes"/>
      <point x="290" y="731"/>
      <point x="184" y="811"/>
    </contour>
  </outline>
</glyph>
<glyph name="less" format="1">
  <advance width="701"/>
  <unicode hex="003C"/>
  <outline>
    <contour>
      <point x="40" y="634" type="qcurve"/>
      <point x="40" y="634"/>
      <point x="454" y="1047"/>
      <point x="514" y="1104" type="qcurve" smooth="yes"/>
      <point x="574" y="1161"/>
      <point x="695" y="1052"/>
      <point x="644" y="993" type="qcurve" smooth="yes"/>
      <point x="537" y="864"/>
      <point x="330" y="637"/>
      <point x="330" y="637" type="qcurve"/>
      <point x="330" y="637"/>
      <point x="540" y="417"/>
      <point x="643" y="294" type="qcurve" smooth="yes"/>
      <point x="694" y="236"/>
      <point x="579" y="119"/>
      <point x="521" y="176" type="qcurve" smooth="yes"/>
      <point x="461" y="233"/>
      <point x="40" y="634"/>
    </contour>
  </outline>
</glyph>
<glyph name="equal" format="1">
  <advance width="1024"/>
  <unicode hex="003D"/>
  <outline>
    <contour>
      <point x="110" y="303" type="line"/>
      <point x="110" y="513" type="line"/>
      <point x="517" y="509" type="line"/>
      <point x="926" y="513" type="line"/>
      <point x="926" y="303" type="line"/>
      <point x="517" y="307" type="line"/>
    </contour>
    <contour>
      <point x="110" y="719" type="line"/>
      <point x="110" y="929" type="line"/>
      <point x="517" y="925" type="line"/>
      <point x="926" y="929" type="line"/>
      <point x="926" y="719" type="line"/>
      <point x="517" y="723" type="line"/>
    </contour>
  </outline>
</glyph>
<glyph name="greater" format="1">
  <advance width="701"/>
  <unicode hex="003E"/>
  <outline>
    <contour>
      <point x="667" y="634" type="qcurve"/>
      <point x="667" y="634"/>
      <point x="246" y="233"/>
      <point x="186" y="176" type="qcurve" smooth="yes"/>
      <point x="128" y="119"/>
      <point x="13" y="236"/>
      <point x="64" y="294" type="qcurve" smooth="yes"/>
      <point x="167" y="417"/>
      <point x="377" y="637"/>
      <point x="377" y="637" type="qcurve"/>
      <point x="377" y="637"/>
      <point x="171" y="864"/>
      <point x="63" y="993" type="qcurve" smooth="yes"/>
      <point x="12" y="1052"/>
      <point x="134" y="1161"/>
      <point x="193" y="1104" type="qcurve" smooth="yes"/>
      <point x="253" y="1047"/>
      <point x="667" y="634"/>
    </contour>
  </outline>
</glyph>
<glyph name="question" format="1">
  <advance width="898"/>
  <unicode hex="003F"/>
  <outline>
    <contour>
      <point x="121" y="143" type="qcurve" smooth="yes"/>
      <point x="121" y="210"/>
      <point x="217" y="305"/>
      <point x="293" y="305" type="qcurve" smooth="yes"/>
      <point x="367" y="305"/>
      <point x="464" y="210"/>
      <point x="464" y="143" type="qcurve" smooth="yes"/>
      <point x="464" y="77"/>
      <point x="367" y="-22"/>
      <point x="293" y="-22" type="qcurve" smooth="yes"/>
      <point x="217" y="-22"/>
      <point x="121" y="77"/>
    </contour>
    <contour>
      <point x="0" y="1365" type="line"/>
      <point x="52" y="1433"/>
      <point x="247" y="1534"/>
      <point x="409" y="1534" type="qcurve" smooth="yes"/>
      <point x="622" y="1534"/>
      <point x="870" y="1309"/>
      <point x="870" y="1117" type="qcurve" smooth="yes"/>
      <point x="870" y="919"/>
      <point x="652" y="702"/>
      <point x="468" y="702" type="qcurve" smooth="yes"/>
      <point x="429" y="702"/>
      <point x="347" y="708"/>
      <point x="319" y="716" type="qcurve"/>
      <point x="313" y="470" type="line"/>
      <point x="218" y="470" type="line"/>
      <point x="219" y="624" type="line"/>
      <point x="208" y="792" type="line"/>
      <point x="240" y="827" type="line"/>
      <point x="265" y="822"/>
      <point x="355" y="814"/>
      <point x="387" y="814" type="qcurve" smooth="yes"/>
      <point x="480" y="814"/>
      <point x="577" y="957"/>
      <point x="577" y="1120" type="qcurve" smooth="yes"/>
      <point x="577" y="1285"/>
      <point x="445" y="1423"/>
      <point x="337" y="1423" type="qcurve" smooth="yes"/>
      <point x="245" y="1423"/>
      <point x="97" y="1358"/>
      <point x="50" y="1310" type="qcurve"/>
    </contour>
  </outline>
</glyph>
<glyph name="at" format="1">
  <advance width="1664"/>
  <unicode hex="0040"/>
  <outline>
    <contour>
      <point x="80" y="746" type="qcurve" smooth="yes"/>
      <point x="80" y="1067"/>
      <point x="502" y="1518"/>
      <point x="845" y="1518" type="qcurve" smooth="yes"/>
      <point x="1182" y="1518"/>
      <point x="1621" y="1136"/>
      <point x="1621" y="826" type="qcurve" smooth="yes"/>
      <point x="1621" y="592"/>
      <point x="1374" y="348"/>
      <point x="1213" y="348" type="qcurve" smooth="yes"/>
      <point x="1102" y="348"/>
      <point x="966" y="444"/>
      <point x="967" y="573" type="qcurve" smooth="yes"/>
      <point x="970" y="855" type="line"/>
      <point x="970" y="984"/>
      <point x="870" y="1077"/>
      <point x="765" y="1077" type="qcurve" smooth="yes"/>
      <point x="694" y="1077"/>
      <point x="589" y="1039"/>
      <point x="552" y="1009" type="qcurve"/>
      <point x="505" y="1065" type="line"/>
      <point x="533" y="1109"/>
      <point x="690" y="1191"/>
      <point x="810" y="1191" type="qcurve" smooth="yes"/>
      <point x="972" y="1191"/>
      <point x="1160" y="1035"/>
      <point x="1162" y="854" type="qcurve" smooth="yes"/>
      <point x="1166" y="463" type="line"/>
      <point x="1185" y="450"/>
      <point x="1221" y="442"/>
      <point x="1254" y="442" type="qcurve" smooth="yes"/>
      <point x="1352" y="442"/>
      <point x="1494" y="617"/>
      <point x="1494" y="801" type="qcurve" smooth="yes"/>
      <point x="1494" y="1042"/>
      <point x="1141" y="1378"/>
      <point x="854" y="1378" type="qcurve" smooth="yes"/>
      <point x="558" y="1378"/>
      <point x="210" y="1045"/>
      <point x="212" y="758" type="qcurve" smooth="yes"/>
      <point x="214" y="464"/>
      <point x="572" y="91"/>
      <point x="840" y="91" type="qcurve" smooth="yes"/>
      <point x="959" y="91"/>
      <point x="1150" y="138"/>
      <point x="1206" y="170" type="qcurve"/>
      <point x="1250" y="110" type="line"/>
      <point x="1176" y="45"/>
      <point x="960" y="-28"/>
      <point x="831" y="-28" type="qcurve" smooth="yes"/>
      <point x="509" y="-28"/>
      <point x="80" y="400"/>
    </contour>
    <contour>
      <point x="451" y="573" type="qcurve" smooth="yes"/>
      <point x="451" y="682"/>
      <point x="715" y="844"/>
      <point x="1002" y="896" type="qcurve"/>
      <point x="1011" y="814" type="line"/>
      <point x="840" y="783"/>
      <point x="656" y="684"/>
      <point x="656" y="584" type="qcurve" smooth="yes"/>
      <point x="656" y="505"/>
      <point x="742" y="436"/>
      <point x="811" y="436" type="qcurve" smooth="yes"/>
      <point x="885" y="436"/>
      <point x="990" y="526"/>
      <point x="998" y="576" type="qcurve"/>
      <point x="1051" y="576" type="line"/>
      <point x="1053" y="487"/>
      <point x="864" y="337"/>
      <point x="728" y="337" type="qcurve" smooth="yes"/>
      <point x="593" y="337"/>
      <point x="451" y="467"/>
    </contour>
  </outline>
</glyph>
<glyph name="A" format="1">
  <advance width="1506"/>
  <unicode hex="0041"/>
  <outline>
    <contour>
      <point x="-25" y="0" type="line"/>
      <point x="-25" y="100" type="line"/>
      <point x="136" y="135" type="line"/>
      <point x="294" y="564" type="line"/>
      <point x="610" y="1508" type="line"/>
      <point x="881" y="1508" type="line"/>
      <point x="1187" y="616" type="line"/>
      <point x="1370" y="135" type="line"/>
      <point x="1523" y="100" type="line"/>
      <point x="1523" y="0" type="line"/>
      <point x="883" y="0" type="line"/>
      <point x="883" y="100" type="line"/>
      <point x="1038" y="131" type="line"/>
      <point x="913" y="535" type="line"/>
      <point x="656" y="1232" type="line"/>
      <point x="409" y="546" type="line"/>
      <point x="283" y="130" type="line"/>
      <point x="437" y="100" type="line"/>
      <point x="437" y="0" type="line"/>
    </contour>
    <contour>
      <point x="315" y="448" type="line"/>
      <point x="352" y="567" type="line"/>
      <point x="690" y="557" type="line"/>
      <point x="1029" y="568" type="line"/>
      <point x="1058" y="448" type="line"/>
    </contour>
  </outline>
</glyph>
<glyph name="B" format="1">
  <advance width="1269"/>
  <unicode hex="0042"/>
  <outline>
    <contour>
      <point x="82" y="0" type="line"/>
      <point x="82" y="100" type="line"/>
      <point x="234" y="136" type="line"/>
      <point x="236" y="784" type="line"/>
      <point x="234" y="1352" type="line"/>
      <point x="82" y="1386" type="line"/>
      <point x="82" y="1500" type="line"/>
      <point x="763" y="1500" type="line" smooth="yes"/>
      <point x="970" y="1500"/>
      <point x="1160" y="1315"/>
      <point x="1160" y="1172" type="qcurve" smooth="yes"/>
      <point x="1160" y="1037"/>
      <point x="1042" y="854"/>
      <point x="938" y="831" type="qcurve"/>
      <point x="938" y="824" type="line"/>
      <point x="1063" y="794"/>
      <point x="1240" y="604"/>
      <point x="1240" y="433" type="qcurve" smooth="yes"/>
      <point x="1240" y="246"/>
      <point x="1005" y="0"/>
      <point x="785" y="0" type="qcurve" smooth="yes"/>
    </contour>
    <contour>
      <point x="535" y="135" type="line"/>
      <point x="564" y="115" type="line"/>
      <point x="658" y="115" type="line" smooth="yes"/>
      <point x="802" y="115"/>
      <point x="934" y="271"/>
      <point x="934" y="440" type="qcurve" smooth="yes"/>
      <point x="934" y="584"/>
      <point x="819" y="738"/>
      <point x="709" y="738" type="qcurve" smooth="yes"/>
      <point x="535" y="738" type="line"/>
      <point x="534" y="727" type="line"/>
    </contour>
    <contour>
      <point x="534" y="875" type="line"/>
      <point x="533" y="852" type="line"/>
      <point x="648" y="852" type="line" smooth="yes"/>
      <point x="758" y="852"/>
      <point x="859" y="991"/>
      <point x="859" y="1129" type="qcurve" smooth="yes"/>
      <point x="859" y="1255"/>
      <point x="761" y="1370"/>
      <point x="656" y="1370" type="qcurve" smooth="yes"/>
      <point x="558" y="1370" type="line"/>
      <point x="537" y="1355" type="line"/>
    </contour>
  </outline>
</glyph>
<glyph name="C" format="1">
  <advance width="1446"/>
  <unicode hex="0043"/>
  <outline>
    <contour>
      <point x="80" y="741" type="qcurve" smooth="yes"/>
      <point x="80" y="1097"/>
      <point x="531" y="1518"/>
      <point x="874" y="1518" type="qcurve" smooth="yes"/>
      <point x="1024" y="1518"/>
      <point x="1264" y="1450"/>
      <point x="1347" y="1390" type="qcurve"/>
      <point x="1242" y="1278" type="line"/>
      <point x="1185" y="1327"/>
      <point x="1014" y="1387"/>
      <point x="914" y="1387" type="qcurve" smooth="yes"/>
      <point x="674" y="1387"/>
      <point x="406" y="1086"/>
      <point x="407" y="768" type="qcurve" smooth="yes"/>
      <point x="408" y="438"/>
      <point x="697" y="115"/>
      <point x="931" y="115" type="qcurve" smooth="yes"/>
      <point x="1082" y="115"/>
      <point x="1295" y="229"/>
      <point x="1355" y="323" type="qcurve"/>
      <point x="1450" y="248" type="line"/>
      <point x="1358" y="116"/>
      <point x="1064" y="-28"/>
      <point x="871" y="-28" type="qcurve" smooth="yes"/>
      <point x="529" y="-28"/>
      <point x="80" y="371"/>
    </contour>
    <contour>
      <point x="1192" y="1322" type="line"/>
      <point x="1273" y="1487" type="line"/>
      <point x="1362" y="1487" type="line"/>
      <point x="1362" y="1048" type="line"/>
      <point x="1252" y="1048" type="line"/>
    </contour>
  </outline>
</glyph>
<glyph name="D" format="1">
  <advance width="1590"/>
  <unicode hex="0044"/>
  <outline>
    <contour>
      <point x="82" y="0" type="line"/>
      <point x="82" y="100" type="line"/>
      <point x="252" y="135" type="line"/>
      <point x="254" y="754" type="line"/>
      <point x="252" y="1352" type="line"/>
      <point x="82" y="1386" type="line"/>
      <point x="82" y="1500" type="line"/>
      <point x="828" y="1500" type="line" smooth="yes"/>
      <point x="1151" y="1500"/>
      <point x="1543" y="1142"/>
      <point x="1543" y="780" type="qcurve" smooth="yes"/>
      <point x="1543" y="387"/>
      <point x="1142" y="0"/>
      <point x="778" y="0" type="qcurve" smooth="yes"/>
    </contour>
    <contour>
      <point x="554" y="130" type="line"/>
      <point x="582" y="124"/>
      <point x="699" y="112"/>
      <point x="759" y="112" type="qcurve" smooth="yes"/>
      <point x="985" y="112"/>
      <point x="1227" y="412"/>
      <point x="1229" y="761" type="qcurve" smooth="yes"/>
      <point x="1231" y="1091"/>
      <point x="953" y="1375"/>
      <point x="729" y="1375" type="qcurve" smooth="yes"/>
      <point x="690" y="1375"/>
      <point x="583" y="1363"/>
      <point x="554" y="1358" type="qcurve"/>
      <point x="553" y="754" type="line"/>
    </contour>
  </outline>
</glyph>
<glyph name="E" format="1">
  <advance width="1260"/>
  <unicode hex="0045"/>
  <outline>
    <contour>
      <point x="82" y="0" type="line"/>
      <point x="82" y="100" type="line"/>
      <point x="259" y="136" type="line"/>
      <point x="261" y="783" type="line"/>
      <point x="259" y="1352" type="line"/>
      <point x="82" y="1386" type="line"/>
      <point x="82" y="1500" type="line"/>
      <point x="1159" y="1500" type="line"/>
      <point x="1159" y="1170" type="line"/>
      <point x="1050" y="1170" type="line"/>
      <point x="1015" y="1382" type="line"/>
      <point x="625" y="1382" type="line"/>
      <point x="562" y="1360" type="line"/>
      <point x="560" y="783" type="line"/>
      <point x="562" y="132" type="line"/>
      <point x="623" y="108" type="line"/>
      <point x="1073" y="108" type="line"/>
      <point x="1148" y="360" type="line"/>
      <point x="1256" y="360" type="line"/>
      <point x="1217" y="0" type="line"/>
    </contour>
    <contour>
      <point x="412" y="738" type="line"/>
      <point x="412" y="834" type="line"/>
      <point x="898" y="844" type="line"/>
      <point x="930" y="993" type="line"/>
      <point x="1035" y="993" type="line"/>
      <point x="1035" y="579" type="line"/>
      <point x="930" y="579" type="line"/>
      <point x="898" y="728" type="line"/>
    </contour>
  </outline>
</glyph>
<glyph name="F" format="1">
  <advance width="1126"/>
  <unicode hex="0046"/>
  <outline>
    <contour>
      <point x="82" y="0" type="line"/>
      <point x="82" y="100" type="line"/>
      <point x="255" y="137" type="line"/>
      <point x="257" y="760" type="line"/>
      <point x="255" y="1352" type="line"/>
      <point x="82" y="1386" type="line"/>
      <point x="82" y="1500" type="line"/>
      <point x="1125" y="1500" type="line"/>
      <point x="1125" y="1162" type="line"/>
      <point x="1017" y="1162" type="line"/>
      <point x="981" y="1382" type="line"/>
      <point x="621" y="1382" type="line"/>
      <point x="559" y="1360" type="line"/>
      <point x="559" y="760" type="line"/>
      <point x="561" y="132" type="line"/>
      <point x="752" y="100" type="line"/>
      <point x="752" y="0" type="line"/>
    </contour>
    <contour>
      <point x="409" y="714" type="line"/>
      <point x="409" y="816" type="line"/>
      <point x="866" y="823" type="line"/>
      <point x="897" y="976" type="line"/>
      <point x="1002" y="976" type="line"/>
      <point x="1002" y="543" type="line"/>
      <point x="897" y="543" type="line"/>
      <point x="866" y="707" type="line"/>
    </contour>
  </outline>
</glyph>
<glyph name="G" format="1">
  <advance width="1582"/>
  <unicode hex="0047"/>
  <outline>
    <contour>
      <point x="80" y="744" type="qcurve" smooth="yes"/>
      <point x="80" y="1101"/>
      <point x="507" y="1517"/>
      <point x="848" y="1517" type="qcurve" smooth="yes"/>
      <point x="991" y="1517"/>
      <point x="1243" y="1450"/>
      <point x="1326" y="1386" type="qcurve"/>
      <point x="1235" y="1271" type="line"/>
      <point x="1172" y="1328"/>
      <point x="994" y="1383"/>
      <point x="890" y="1383" type="qcurve" smooth="yes"/>
      <point x="667" y="1383"/>
      <point x="405" y="1099"/>
      <point x="407" y="770" type="qcurve" smooth="yes"/>
      <point x="408" y="442"/>
      <point x="669" y="98"/>
      <point x="903" y="98" type="qcurve" smooth="yes"/>
      <point x="1030" y="99"/>
      <point x="1220" y="195"/>
      <point x="1274" y="280" type="qcurve"/>
      <point x="1475" y="215" type="line"/>
      <point x="1403" y="120"/>
      <point x="1095" y="-27"/>
      <point x="885" y="-27" type="qcurve" smooth="yes"/>
      <point x="520" y="-27"/>
      <point x="80" y="374"/>
    </contour>
    <contour>
      <point x="1021" y="572" type="line"/>
      <point x="1021" y="672" type="line"/>
      <point x="1583" y="672" type="line"/>
      <point x="1583" y="572" type="line"/>
      <point x="1475" y="537" type="line"/>
      <point x="1475" y="215" type="line"/>
      <point x="1184" y="134" type="line"/>
      <point x="1184" y="537" type="line"/>
    </contour>
    <contour>
      <point x="1182" y="1325" type="line"/>
      <point x="1254" y="1487" type="line"/>
      <point x="1350" y="1487" type="line"/>
      <point x="1350" y="1065" type="line"/>
      <point x="1242" y="1065" type="line"/>
    </contour>
  </outline>
</glyph>
<glyph name="H" format="1">
  <advance width="1740"/>
  <unicode hex="0048"/>
  <outline>
    <contour>
      <point x="82" y="0" type="line"/>
      <point x="82" y="100" type="line"/>
      <point x="255" y="135" type="line"/>
      <point x="257" y="754" type="line"/>
      <point x="255" y="1352" type="line"/>
      <point x="82" y="1386" type="line"/>
      <point x="82" y="1500" type="line"/>
      <point x="730" y="1500" type="line"/>
      <point x="730" y="1386" type="line"/>
      <point x="559" y="1352" type="line"/>
      <point x="557" y="754" type="line"/>
      <point x="559" y="135" type="line"/>
      <point x="730" y="100" type="line"/>
      <point x="730" y="0" type="line"/>
    </contour>
    <contour>
      <point x="409" y="716" type="line"/>
      <point x="409" y="848" type="line"/>
      <point x="885" y="840" type="line"/>
      <point x="1369" y="848" type="line"/>
      <point x="1369" y="716" type="line"/>
      <point x="885" y="716" type="line"/>
    </contour>
    <contour>
      <point x="1040" y="0" type="line"/>
      <point x="1040" y="100" type="line"/>
      <point x="1212" y="135" type="line"/>
      <point x="1214" y="754" type="line"/>
      <point x="1212" y="1352" type="line"/>
      <point x="1040" y="1386" type="line"/>
      <point x="1040" y="1500" type="line"/>
      <point x="1688" y="1500" type="line"/>
      <point x="1688" y="1386" type="line"/>
      <point x="1516" y="1352" type="line"/>
      <point x="1514" y="754" type="line"/>
      <point x="1516" y="135" type="line"/>
      <point x="1688" y="100" type="line"/>
      <point x="1688" y="0" type="line"/>
    </contour>
  </outline>
</glyph>
<glyph name="I" format="1">
  <advance width="780"/>
  <unicode hex="0049"/>
  <outline>
    <contour>
      <point x="82" y="0" type="line"/>
      <point x="82" y="100" type="line"/>
      <point x="256" y="135" type="line"/>
      <point x="258" y="754" type="line"/>
      <point x="256" y="1352" type="line"/>
      <point x="82" y="1386" type="line"/>
      <point x="82" y="1500" type="line"/>
      <point x="734" y="1500" type="line"/>
      <point x="734" y="1386" type="line"/>
      <point x="561" y="1352" type="line"/>
      <point x="559" y="754" type="line"/>
      <point x="561" y="136" type="line"/>
      <point x="734" y="100" type="line"/>
      <point x="734" y="0" type="line"/>
    </contour>
  </outline>
</glyph>
<glyph name="J" format="1">
  <advance width="660"/>
  <unicode hex="004A"/>
  <outline>
    <contour>
      <point x="16" y="0" type="qcurve"/>
      <point x="16" y="101" type="line"/>
      <point x="66" y="101" type="line" smooth="yes"/>
      <point x="150" y="101"/>
      <point x="228" y="191"/>
      <point x="228" y="300" type="qcurve" smooth="yes"/>
      <point x="226" y="754" type="line"/>
      <point x="224" y="1352" type="line"/>
      <point x="58" y="1386" type="line"/>
      <point x="58" y="1500" type="line"/>
      <point x="661" y="1500" type="line"/>
      <point x="661" y="1386" type="line"/>
      <point x="527" y="1352" type="line"/>
      <point x="525" y="754" type="line"/>
      <point x="528" y="396" type="line" smooth="yes"/>
      <point x="529" y="195"/>
      <point x="350" y="-18"/>
      <point x="214" y="-18" type="qcurve" smooth="yes"/>
      <point x="153" y="-18"/>
      <point x="47" y="-8"/>
    </contour>
  </outline>
</glyph>
<glyph name="K" format="1">
  <advance width="1440"/>
  <unicode hex="004B"/>
  <outline>
    <contour>
      <point x="82" y="0" type="line"/>
      <point x="82" y="100" type="line"/>
      <point x="244" y="135" type="line"/>
      <point x="246" y="754" type="line"/>
      <point x="244" y="1352" type="line"/>
      <point x="82" y="1386" type="line"/>
      <point x="82" y="1500" type="line"/>
      <point x="707" y="1500" type="line"/>
      <point x="707" y="1386" type="line"/>
      <point x="547" y="1352" type="line"/>
      <point x="542" y="754" type="line"/>
      <point x="547" y="135" type="line"/>
      <point x="707" y="100" type="line"/>
      <point x="707" y="0" type="line"/>
    </contour>
    <contour>
      <point x="442" y="447" type="line"/>
      <point x="436" y="610" type="line"/>
      <point x="1056" y="1342" type="line"/>
      <point x="928" y="1386" type="line"/>
      <point x="928" y="1500" type="line"/>
      <point x="1378" y="1500" type="line"/>
      <point x="1378" y="1386" type="line"/>
      <point x="1222" y="1342" type="line"/>
    </contour>
    <contour>
      <point x="670" y="769" type="line"/>
      <point x="868" y="1003" type="line"/>
      <point x="1352" y="135" type="line"/>
      <point x="1479" y="100" type="line"/>
      <point x="1479" y="0" type="line"/>
      <point x="891" y="0" type="line"/>
      <point x="891" y="100" type="line"/>
      <point x="1022" y="135" type="line"/>
    </contour>
  </outline>
</glyph>
<glyph name="L" format="1">
  <advance width="1264"/>
  <unicode hex="004C"/>
  <outline>
    <contour>
      <point x="82" y="0" type="line"/>
      <point x="82" y="100" type="line"/>
      <point x="259" y="133" type="line"/>
      <point x="261" y="754" type="line"/>
      <point x="259" y="1352" type="line"/>
      <point x="82" y="1386" type="line"/>
      <point x="82" y="1500" type="line"/>
      <point x="769" y="1500" type="line"/>
      <point x="769" y="1386" type="line"/>
      <point x="563" y="1352" type="line"/>
      <point x="561" y="754" type="line"/>
      <point x="563" y="135" type="line"/>
      <point x="599" y="108" type="line"/>
      <point x="1077" y="108" type="line"/>
      <point x="1161" y="396" type="line"/>
      <point x="1277" y="396" type="line"/>
      <point x="1229" y="0" type="line"/>
    </contour>
  </outline>
</glyph>
<glyph name="M" format="1">
  <advance width="2116"/>
  <unicode hex="004D"/>
  <outline>
    <contour>
      <point x="82" y="0" type="line"/>
      <point x="82" y="100" type="line"/>
      <point x="263" y="135" type="line"/>
      <point x="265" y="754" type="line"/>
      <point x="263" y="1352" type="line"/>
      <point x="82" y="1386" type="line"/>
      <point x="82" y="1500" type="line"/>
      <point x="625" y="1500" type="line"/>
      <point x="856" y="854" type="line"/>
      <point x="1052" y="324" type="line"/>
      <point x="1247" y="845" type="line"/>
      <point x="1486" y="1500" type="line"/>
      <point x="2058" y="1500" type="line"/>
      <point x="2058" y="1386" type="line"/>
      <point x="1877" y="1352" type="line"/>
      <point x="1875" y="754" type="line"/>
      <point x="1877" y="135" type="line"/>
      <point x="2058" y="100" type="line"/>
      <point x="2058" y="0" type="line"/>
      <point x="1367" y="0" type="line"/>
      <point x="1367" y="100" type="line"/>
      <point x="1574" y="135" type="line"/>
      <point x="1576" y="754" type="line"/>
      <point x="1574" y="1331" type="line"/>
      <point x="1358" y="751" type="line"/>
      <point x="1093" y="-7" type="line"/>
      <point x="861" y="-7" type="line"/>
      <point x="606" y="736" type="line"/>
      <point x="386" y="1336" type="line"/>
      <point x="384" y="754" type="line"/>
      <point x="386" y="135" type="line"/>
      <point x="575" y="100" type="line"/>
      <point x="575" y="0" type="line"/>
    </contour>
  </outline>
</glyph>
<glyph name="N" format="1">
  <advance width="1610"/>
  <unicode hex="004E"/>
  <outline>
    <contour>
      <point x="82" y="0" type="line"/>
      <point x="82" y="100" type="line"/>
      <point x="271" y="135" type="line"/>
      <point x="273" y="754" type="line"/>
      <point x="271" y="1352" type="line"/>
      <point x="82" y="1386" type="line"/>
      <point x="82" y="1500" type="line"/>
      <point x="617" y="1500" type="line"/>
      <point x="965" y="851" type="line"/>
      <point x="1248" y="364" type="line"/>
      <point x="1249" y="765" type="line"/>
      <point x="1247" y="1352" type="line"/>
      <point x="1043" y="1386" type="line"/>
      <point x="1043" y="1500" type="line"/>
      <point x="1554" y="1500" type="line"/>
      <point x="1554" y="1386" type="line"/>
      <point x="1367" y="1352" type="line"/>
      <point x="1365" y="754" type="line"/>
      <point x="1361" y="0" type="line"/>
      <point x="1102" y="0" type="line"/>
      <point x="700" y="706" type="line"/>
      <point x="389" y="1278" type="line"/>
      <point x="389" y="730" type="line"/>
      <point x="391" y="135" type="line"/>
      <point x="587" y="100" type="line"/>
      <point x="587" y="0" type="line"/>
    </contour>
  </outline>
</glyph>
<glyph name="O" format="1">
  <advance width="1664"/>
  <unicode hex="004F"/>
  <outline>
    <contour>
      <point x="80" y="740" type="qcurve" smooth="yes"/>
      <point x="80" y="1094"/>
      <point x="486" y="1519"/>
      <point x="849" y="1519" type="qcurve" smooth="yes"/>
      <point x="1211" y="1519"/>
      <point x="1618" y="1115"/>
      <point x="1618" y="754" type="qcurve" smooth="yes"/>
      <point x="1618" y="409"/>
      <point x="1217" y="-27"/>
      <point x="853" y="-27" type="qcurve" smooth="yes"/>
      <point x="498" y="-27"/>
      <point x="80" y="390"/>
    </contour>
    <contour>
      <point x="407" y="773" type="qcurve" smooth="yes"/>
      <point x="407" y="447"/>
      <point x="647" y="104"/>
      <point x="850" y="104" type="qcurve" smooth="yes"/>
      <point x="1069" y="104"/>
      <point x="1291" y="415"/>
      <point x="1291" y="747" type="qcurve" smooth="yes"/>
      <point x="1291" y="1054"/>
      <point x="1054" y="1379"/>
      <point x="851" y="1379" type="qcurve" smooth="yes"/>
      <point x="633" y="1379"/>
      <point x="407" y="1091"/>
    </contour>
  </outline>
</glyph>
<glyph name="P" format="1">
  <advance width="1268"/>
  <unicode hex="0050"/>
  <outline>
    <contour>
      <point x="42" y="0" type="line"/>
      <point x="42" y="100" type="line"/>
      <point x="158" y="137" type="line"/>
      <point x="160" y="754" type="line"/>
      <point x="158" y="1352" type="line"/>
      <point x="42" y="1386" type="line"/>
      <point x="42" y="1500" type="line"/>
      <point x="802" y="1500" type="line" smooth="yes"/>
      <point x="1026" y="1500"/>
      <point x="1260" y="1296"/>
      <point x="1260" y="1081" type="qcurve" smooth="yes"/>
      <point x="1260" y="868"/>
      <point x="1041" y="607"/>
      <point x="812" y="607" type="qcurve" smooth="yes"/>
      <point x="724" y="607"/>
      <point x="612" y="625"/>
      <point x="580" y="636" type="qcurve"/>
      <point x="589" y="737" type="line"/>
      <point x="601" y="732"/>
      <point x="625" y="720"/>
      <point x="639" y="720" type="qcurve" smooth="yes"/>
      <point x="691" y="720"/>
      <point x="753" y="861"/>
      <point x="753" y="1073" type="qcurve" smooth="yes"/>
      <point x="753" y="1271"/>
      <point x="737" y="1382"/>
      <point x="699" y="1382" type="qcurve" smooth="yes"/>
      <point x="678" y="1382" type="line"/>
      <point x="660" y="1365" type="line"/>
      <point x="660" y="764" type="line"/>
      <point x="662" y="132" type="line"/>
      <point x="767" y="100" type="line"/>
      <point x="767" y="0" type="line"/>
    </contour>
  </outline>
</glyph>
<glyph name="Q" format="1">
  <advance width="1664"/>
  <unicode hex="0051"/>
  <outline>
    <contour>
      <point x="80" y="746" type="qcurve" smooth="yes"/>
      <point x="80" y="1092"/>
      <point x="508" y="1519"/>
      <point x="846" y="1519" type="qcurve" smooth="yes"/>
      <point x="1190" y="1519"/>
      <point x="1611" y="1118"/>
      <point x="1611" y="754" type="qcurve" smooth="yes"/>
      <point x="1611" y="387"/>
      <point x="1172" y="-17"/>
      <point x="846" y="-17" type="qcurve" smooth="yes"/>
      <point x="500" y="-17"/>
      <point x="80" y="397"/>
    </contour>
    <contour>
      <point x="407" y="774" type="qcurve" smooth="yes"/>
      <point x="408" y="450"/>
      <point x="646" y="100"/>
      <point x="844" y="100" type="qcurve" smooth="yes"/>
      <point x="1057" y="100"/>
      <point x="1284" y="412"/>
      <point x="1285" y="749" type="qcurve" smooth="yes"/>
      <point x="1287" y="1071"/>
      <point x="1046" y="1380"/>
      <point x="847" y="1380" type="qcurve" smooth="yes"/>
      <point x="632" y="1380"/>
      <point x="405" y="1096"/>
    </contour>
    <contour>
      <point x="212" y="-283" type="line"/>
      <point x="278" y="-157"/>
      <point x="477" y="-39"/>
      <point x="573" y="-39" type="qcurve"/>
      <point x="1276" y="-238" type="line"/>
      <point x="1357" y="-238"/>
      <point x="1471" y="-159"/>
      <point x="1504" y="-95" type="qcurve"/>
      <point x="1587" y="-144" type="line"/>
      <point x="1542" y="-271"/>
      <point x="1384" y="-447"/>
      <point x="1245" y="-447" type="qcurve"/>
      <point x="548" y="-239" type="line"/>
      <point x="459" y="-239"/>
      <point x="332" y="-282"/>
      <point x="277" y="-344" type="qcurve"/>
    </contour>
    <contour>
      <point x="501" y="-124" type="line"/>
      <point x="618" y="46" type="line"/>
      <point x="625" y="62"/>
      <point x="635" y="77"/>
      <point x="647" y="89" type="qcurve"/>
      <point x="683" y="82"/>
      <point x="728" y="63"/>
      <point x="756" y="46" type="qcurve"/>
      <point x="749" y="31"/>
      <point x="738" y="16"/>
      <point x="727" y="1" type="qcurve" smooth="yes"/>
      <point x="614" y="-169" type="line"/>
    </contour>
  </outline>
</glyph>
<glyph name="R" format="1">
  <advance width="1400"/>
  <unicode hex="0052"/>
  <outline>
    <contour>
      <point x="82" y="0" type="line"/>
      <point x="82" y="100" type="line"/>
      <point x="240" y="136" type="line"/>
      <point x="242" y="754" type="line"/>
      <point x="240" y="1352" type="line"/>
      <point x="82" y="1386" type="line"/>
      <point x="82" y="1500" type="line"/>
      <point x="832" y="1500" type="line" smooth="yes"/>
      <point x="1029" y="1500"/>
      <point x="1220" y="1326"/>
      <point x="1220" y="1154" type="qcurve" smooth="yes"/>
      <point x="1220" y="969"/>
      <point x="998" y="747"/>
      <point x="836" y="747" type="qcurve" smooth="yes"/>
      <point x="765" y="747"/>
      <point x="443" y="754"/>
      <point x="391" y="760" type="qcurve"/>
      <point x="389" y="855" type="line"/>
      <point x="557" y="855" type="line"/>
      <point x="675" y="855" type="line" smooth="yes"/>
      <point x="797" y="855"/>
      <point x="903" y="1002"/>
      <point x="903" y="1141" type="qcurve" smooth="yes"/>
      <point x="903" y="1268"/>
      <point x="809" y="1382"/>
      <point x="705" y="1382" type="qcurve" smooth="yes"/>
      <point x="570" y="1382" type="line"/>
      <point x="546" y="1364" type="line"/>
      <point x="542" y="751" type="line"/>
      <point x="544" y="136" type="line"/>
      <point x="708" y="100" type="line"/>
      <point x="708" y="0" type="line"/>
    </contour>
    <contour>
      <point x="667" y="773" type="line"/>
      <point x="929" y="845" type="line"/>
      <point x="1217" y="272" type="line"/>
      <point x="1287" y="162"/>
      <point x="1392" y="104"/>
      <point x="1439" y="100" type="qcurve"/>
      <point x="1439" y="0" type="line"/>
      <point x="1086" y="0" type="line"/>
      <point x="1021" y="62" type="line"/>
    </contour>
  </outline>
</glyph>
<glyph name="S" format="1">
  <advance width="1112"/>
  <unicode hex="0053"/>
  <outline>
    <contour>
      <point x="52" y="0" type="line"/>
      <point x="52" y="449" type="line"/>
      <point x="161" y="449" type="line"/>
      <point x="221" y="171" type="line"/>
      <point x="147" y="0" type="line"/>
    </contour>
    <contour>
      <point x="85" y="1133" type="qcurve" smooth="yes"/>
      <point x="85" y="1305"/>
      <point x="313" y="1516"/>
      <point x="521" y="1516" type="qcurve" smooth="yes"/>
      <point x="657" y="1516"/>
      <point x="860" y="1449"/>
      <point x="931" y="1390" type="qcurve"/>
      <point x="862" y="1284" type="line"/>
      <point x="808" y="1326"/>
      <point x="643" y="1385"/>
      <point x="535" y="1385" type="qcurve" smooth="yes"/>
      <point x="413" y="1385"/>
      <point x="300" y="1294"/>
      <point x="300" y="1209" type="qcurve" smooth="yes"/>
      <point x="300" y="1122"/>
      <point x="438" y="985"/>
      <point x="641" y="900" type="qcurve" smooth="yes"/>
      <point x="831" y="824"/>
      <point x="1082" y="598"/>
      <point x="1082" y="410" type="qcurve" smooth="yes"/>
      <point x="1082" y="219"/>
      <point x="820" y="-21"/>
      <point x="600" y="-21" type="qcurve" smooth="yes"/>
      <point x="411" y="-21"/>
      <point x="173" y="111"/>
      <point x="83" y="244" type="qcurve"/>
      <point x="186" y="311" type="line"/>
      <point x="224" y="215"/>
      <point x="438" y="104"/>
      <point x="577" y="104" type="qcurve" smooth="yes"/>
      <point x="697" y="104"/>
      <point x="848" y="230"/>
      <point x="848" y="334" type="qcurve" smooth="yes"/>
      <point x="848" y="458"/>
      <point x="675" y="608"/>
      <point x="485" y="682" type="qcurve" smooth="yes"/>
      <point x="273" y="765"/>
      <point x="85" y="970"/>
    </contour>
    <contour>
      <point x="826" y="1316" type="line"/>
      <point x="890" y="1487" type="line"/>
      <point x="985" y="1487" type="line"/>
      <point x="985" y="1076" type="line"/>
      <point x="878" y="1076" type="line"/>
    </contour>
  </outline>
</glyph>
<glyph name="T" format="1">
  <advance width="1288"/>
  <unicode hex="0054"/>
  <outline>
    <contour>
      <point x="40" y="1072" type="line"/>
      <point x="40" y="1500" type="line"/>
      <point x="1264" y="1500" type="line"/>
      <point x="1264" y="1072" type="line"/>
      <point x="1156" y="1072" type="line"/>
      <point x="1121" y="1387" type="line"/>
      <point x="820" y="1387" type="line"/>
      <point x="802" y="1368" type="line"/>
      <point x="801" y="754" type="line"/>
      <point x="803" y="136" type="line"/>
      <point x="980" y="100" type="line"/>
      <point x="980" y="0" type="line"/>
      <point x="321" y="0" type="line"/>
      <point x="321" y="100" type="line"/>
      <point x="499" y="136" type="line"/>
      <point x="501" y="754" type="line"/>
      <point x="502" y="1368" type="line"/>
      <point x="492" y="1387" type="line"/>
      <point x="183" y="1387" type="line"/>
      <point x="148" y="1072" type="line"/>
    </contour>
  </outline>
</glyph>
<glyph name="U" format="1">
  <advance width="1632"/>
  <unicode hex="0055"/>
  <outline>
    <contour>
      <point x="74" y="1386" type="line"/>
      <point x="74" y="1500" type="line"/>
      <point x="755" y="1500" type="line"/>
      <point x="755" y="1386" type="line"/>
      <point x="568" y="1352" type="line"/>
      <point x="563" y="794" type="line"/>
      <point x="567" y="461" type="line" smooth="yes"/>
      <point x="567" y="271"/>
      <point x="738" y="97"/>
      <point x="920" y="97" type="qcurve" smooth="yes"/>
      <point x="1085" y="97"/>
      <point x="1261" y="277"/>
      <point x="1262" y="476" type="qcurve" smooth="yes"/>
      <point x="1263" y="794" type="line"/>
      <point x="1262" y="1352" type="line"/>
      <point x="1064" y="1386" type="line"/>
      <point x="1064" y="1500" type="line"/>
      <point x="1592" y="1500" type="line"/>
      <point x="1592" y="1386" type="line"/>
      <point x="1403" y="1352" type="line"/>
      <point x="1401" y="794" type="line"/>
      <point x="1404" y="482" type="line" smooth="yes"/>
      <point x="1407" y="232"/>
      <point x="1123" y="-29"/>
      <point x="858" y="-29" type="qcurve" smooth="yes"/>
      <point x="558" y="-29"/>
      <point x="261" y="231"/>
      <point x="263" y="471" type="qcurve" smooth="yes"/>
      <point x="265" y="794" type="line"/>
      <point x="263" y="1352" type="line"/>
    </contour>
  </outline>
</glyph>
<glyph name="V" format="1">
  <advance width="1426"/>
  <unicode hex="0056"/>
  <outline>
    <contour>
      <point x="-30" y="1388" type="line"/>
      <point x="-30" y="1500" type="line"/>
      <point x="579" y="1500" type="line"/>
      <point x="579" y="1388" type="line"/>
      <point x="434" y="1347" type="line"/>
      <point x="615" y="836" type="line"/>
      <point x="810" y="315" type="line"/>
      <point x="990" y="836" type="line"/>
      <point x="1168" y="1354" type="line"/>
      <point x="1006" y="1388" type="line"/>
      <point x="1006" y="1500" type="line"/>
      <point x="1464" y="1500" type="line"/>
      <point x="1464" y="1388" type="line"/>
      <point x="1309" y="1349" type="line"/>
      <point x="1106" y="792" type="line"/>
      <point x="842" y="-6" type="line"/>
      <point x="590" y="-6" type="line"/>
      <point x="331" y="768" type="line"/>
      <point x="114" y="1349" type="line"/>
    </contour>
  </outline>
</glyph>
<glyph name="W" format="1">
  <advance width="2102"/>
  <unicode hex="0057"/>
  <outline>
    <contour>
      <point x="-30" y="1388" type="line"/>
      <point x="-30" y="1500" type="line"/>
      <point x="576" y="1500" type="line"/>
      <point x="576" y="1388" type="line"/>
      <point x="422" y="1347" type="line"/>
      <point x="580" y="838" type="line"/>
      <point x="746" y="321" type="line"/>
      <point x="905" y="824" type="line"/>
      <point x="1025" y="1214" type="line"/>
      <point x="1103" y="1018" type="line"/>
      <point x="1019" y="777" type="line"/>
      <point x="783" y="-6" type="line"/>
      <point x="545" y="-6" type="line"/>
      <point x="313" y="766" type="line"/>
      <point x="110" y="1349" type="line"/>
    </contour>
    <contour>
      <point x="751" y="1394" type="line"/>
      <point x="751" y="1500" type="line"/>
      <point x="1334" y="1500" type="line"/>
      <point x="1334" y="1394" type="line"/>
      <point x="1194" y="1353" type="line"/>
      <point x="1341" y="843" type="line"/>
      <point x="1501" y="321" type="line"/>
      <point x="1668" y="840" type="line"/>
      <point x="1823" y="1354" type="line"/>
      <point x="1659" y="1388" type="line"/>
      <point x="1659" y="1500" type="line"/>
      <point x="2134" y="1500" type="line"/>
      <point x="2134" y="1388" type="line"/>
      <point x="1975" y="1349" type="line"/>
      <point x="1787" y="801" type="line"/>
      <point x="1544" y="-6" type="line"/>
      <point x="1306" y="-6" type="line"/>
      <point x="1091" y="753" type="line"/>
      <point x="890" y="1355" type="line"/>
    </contour>
  </outline>
</glyph>
<glyph name="X" format="1">
  <advance width="1346"/>
  <unicode hex="0058"/>
  <outline>
    <contour>
      <point x="-20" y="0" type="line"/>
      <point x="-20" y="100" type="line"/>
      <point x="118" y="135" type="line"/>
      <point x="591" y="858" type="line"/>
      <point x="655" y="858" type="line"/>
      <point x="974" y="1359" type="line"/>
      <point x="830" y="1386" type="line"/>
      <point x="830" y="1500" type="line"/>
      <point x="1269" y="1500" type="line"/>
      <point x="1269" y="1386" type="line"/>
      <point x="1125" y="1355" type="line"/>
      <point x="716" y="741" type="line"/>
      <point x="651" y="741" type="line"/>
      <point x="269" y="130" type="line"/>
      <point x="411" y="100" type="line"/>
      <point x="411" y="0" type="line"/>
    </contour>
    <contour>
      <point x="22" y="1386" type="line"/>
      <point x="22" y="1500" type="line"/>
      <point x="633" y="1500" type="line"/>
      <point x="633" y="1386" type="line"/>
      <point x="495" y="1354" type="line"/>
      <point x="783" y="856" type="line"/>
      <point x="1230" y="135" type="line"/>
      <point x="1369" y="100" type="line"/>
      <point x="1369" y="0" type="line"/>
      <point x="744" y="0" type="line"/>
      <point x="744" y="100" type="line"/>
      <point x="885" y="135" type="line"/>
      <point x="544" y="732" type="line"/>
      <point x="150" y="1355" type="line"/>
    </contour>
  </outline>
</glyph>
<glyph name="Y" format="1">
  <advance width="1266"/>
  <unicode hex="0059"/>
  <outline>
    <contour>
      <point x="-7.0" y="1386" type="line"/>
      <point x="-7.0" y="1500" type="line"/>
      <point x="708.0" y="1500" type="line"/>
      <point x="708.0" y="1386" type="line"/>
      <point x="630.0" y="1351" type="line"/>
      <point x="736.0" y="1047" type="line"/>
      <point x="830.0" y="842" type="line"/>
      <point x="933.0" y="1064" type="line"/>
      <point x="1038.0" y="1358" type="line"/>
      <point x="945.0" y="1386" type="line"/>
      <point x="945.0" y="1500" type="line"/>
      <point x="1273.0" y="1500" type="line"/>
      <point x="1273.0" y="1386" type="line"/>
      <point x="1187.0" y="1359" type="line"/>
      <point x="1039.0" y="1024" type="line"/>
      <point x="892.0" y="664" type="line"/>
      <point x="894.0" y="135" type="line"/>
      <point x="994.0" y="104" type="line"/>
      <point x="994.0" y="0" type="line"/>
      <point x="285.0" y="0" type="line"/>
      <point x="285.0" y="104" type="line"/>
      <point x="388.0" y="135" type="line"/>
      <point x="390.0" y="659" type="line"/>
      <point x="243.0" y="1002" type="line"/>
      <point x="74.0" y="1360" type="line"/>
    </contour>
  </outline>
</glyph>
<glyph name="Z" format="1">
  <advance width="1166"/>
  <unicode hex="005A"/>
  <outline>
    <contour>
      <point x="46.0" y="0" type="line"/>
      <point x="16.0" y="92" type="line"/>
      <point x="352.0" y="820" type="line"/>
      <point x="581.0" y="1372" type="line"/>
      <point x="571.0" y="1382" type="line"/>
      <point x="209.0" y="1382" type="line"/>
      <point x="173.0" y="1092" type="line"/>
      <point x="62.0" y="1092" type="line"/>
      <point x="62.0" y="1500" type="line"/>
      <point x="1125.0" y="1500" type="line"/>
      <point x="1125.0" y="1410" type="line"/>
      <point x="802.0" y="698" type="line"/>
      <point x="571.0" y="121" type="line"/>
      <point x="581.0" y="108" type="line"/>
      <point x="984.0" y="108" type="line"/>
      <point x="1060.0" y="355" type="line"/>
      <point x="1158.0" y="355" type="line"/>
      <point x="1118.0" y="0" type="line"/>
    </contour>
  </outline>
</glyph>
<glyph name="backslash" format="1">
  <advance width="656"/>
  <unicode hex="005C"/>
  <outline>
    <contour>
      <point x="-30" y="1495" type="line"/>
      <point x="161" y="1548" type="line"/>
      <point x="675" y="-115" type="line"/>
      <point x="483" y="-166" type="line"/>
    </contour>
  </outline>
</glyph>
<glyph name="bracketright" format="1">
  <advance width="636"/>
  <unicode hex="005D"/>
  <outline>
    <contour>
      <point x="536" y="508" type="line"/>
      <point x="548" y="-342" type="line"/>
      <point x="567" y="-362" type="line"/>
      <point x="567" y="-480" type="line"/>
      <point x="64" y="-480" type="line"/>
      <point x="64" y="-361" type="line"/>
      <point x="274" y="-342" type="line"/>
      <point x="286" y="508" type="line"/>
      <point x="274" y="1362" type="line"/>
      <point x="64" y="1381" type="line"/>
      <point x="64" y="1500" type="line"/>
      <point x="567" y="1500" type="line"/>
      <point x="567" y="1382" type="line"/>
      <point x="548" y="1362" type="line"/>
    </contour>
  </outline>
</glyph>
<glyph name="asciicircum" format="1">
  <advance width="1317"/>
  <unicode hex="005E"/>
  <outline>
    <contour>
      <point x="641" y="1524" type="qcurve" smooth="yes"/>
      <point x="664" y="1524"/>
      <point x="1150" y="998"/>
      <point x="1201" y="929" type="qcurve" smooth="yes"/>
      <point x="1251" y="864"/>
      <point x="1148" y="780"/>
      <point x="1093" y="830" type="qcurve" smooth="yes"/>
      <point x="962" y="950"/>
      <point x="645" y="1234"/>
      <point x="643" y="1234" type="qcurve" smooth="yes"/>
      <point x="641" y="1234"/>
      <point x="350" y="949"/>
      <point x="226" y="832" type="qcurve" smooth="yes"/>
      <point x="172" y="781"/>
      <point x="68" y="863"/>
      <point x="116" y="928" type="qcurve" smooth="yes"/>
      <point x="166" y="997"/>
      <point x="617" y="1524"/>
    </contour>
  </outline>
</glyph>
<glyph name="underscore" format="1">
  <advance width="1448"/>
  <unicode hex="005F"/>
  <outline>
    <contour>
      <point x="-20" y="-481" type="line"/>
      <point x="-20" y="-312" type="line"/>
      <point x="728" y="-291" type="line"/>
      <point x="1468" y="-312" type="line"/>
      <point x="1468" y="-481" type="line"/>
      <point x="728" y="-477" type="line"/>
    </contour>
  </outline>
</glyph>
<glyph name="grave" format="1">
  <advance width="1024"/>
  <unicode hex="0060"/>
  <outline>
    <contour>
      <point x="228.1120543293718" y="1341" type="qcurve" smooth="yes"/>
      <point x="228.1120543293718" y="1385"/>
      <point x="298.1120543293718" y="1456"/>
      <point x="369.1120543293718" y="1456" type="qcurve" smooth="yes"/>
      <point x="438.1120543293718" y="1456"/>
      <point x="537.1120543293719" y="1376"/>
      <point x="584.1120543293719" y="1317" type="qcurve" smooth="yes"/>
      <point x="795.1120543293719" y="1060" type="line"/>
      <point x="565.1120543293719" y="1060" type="line"/>
      <point x="352.1120543293718" y="1198" type="line"/>
      <point x="292.1120543293718" y="1229"/>
      <point x="228.1120543293718" y="1296"/>
    </contour>
  </outline>
</glyph>
<glyph name="a" format="1">
  <advance width="1032"/>
  <unicode hex="0061"/>
  <outline>
    <contour>
      <point x="38" y="265" type="qcurve" smooth="yes"/>
      <point x="38" y="394"/>
      <point x="321" y="595"/>
      <point x="633" y="657" type="qcurve"/>
      <point x="640" y="579" type="line"/>
      <point x="485" y="540"/>
      <point x="324" y="391"/>
      <point x="324" y="268" type="qcurve" smooth="yes"/>
      <point x="324" y="168"/>
      <point x="403" y="102"/>
      <point x="465" y="102" type="qcurve" smooth="yes"/>
      <point x="531" y="102"/>
      <point x="630" y="186"/>
      <point x="634" y="264" type="qcurve"/>
      <point x="686" y="264" type="line"/>
      <point x="688" y="149"/>
      <point x="502" y="-13"/>
      <point x="344" y="-13" type="qcurve" smooth="yes"/>
      <point x="189" y="-13"/>
      <point x="38" y="142"/>
    </contour>
    <contour>
      <point x="142" y="867" type="line"/>
      <point x="179" y="924"/>
      <point x="366" y="1022"/>
      <point x="512" y="1022" type="qcurve" smooth="yes"/>
      <point x="697" y="1022"/>
      <point x="904" y="845"/>
      <point x="906" y="653" type="qcurve" smooth="yes"/>
      <point x="911" y="115" type="line"/>
      <point x="1018" y="80" type="line"/>
      <point x="1018" y="0" type="line"/>
      <point x="689" y="0" type="line"/>
      <point x="638" y="61" type="line"/>
      <point x="618" y="154" type="line"/>
      <point x="620" y="639" type="line" smooth="yes"/>
      <point x="621" y="800"/>
      <point x="519" y="905"/>
      <point x="418" y="905" type="qcurve" smooth="yes"/>
      <point x="348" y="905"/>
      <point x="243" y="862"/>
      <point x="201" y="817" type="qcurve"/>
    </contour>
  </outline>
</glyph>
<glyph name="b" format="1">
  <advance width="1158"/>
  <unicode hex="0062"/>
  <outline>
    <contour>
      <point x="0" y="1406" type="line"/>
      <point x="0" y="1500" type="line"/>
      <point x="362" y="1534" type="line"/>
      <point x="393" y="1534" type="line"/>
      <point x="421" y="1502" type="line"/>
      <point x="416" y="428" type="line"/>
      <point x="416" y="81" type="line"/>
      <point x="332" y="0" type="line"/>
      <point x="127" y="0" type="line"/>
      <point x="138" y="427" type="line"/>
      <point x="127" y="1376" type="line"/>
    </contour>
    <contour>
      <point x="373" y="121" type="qcurve"/>
      <point x="409" y="218" type="line"/>
      <point x="429" y="164"/>
      <point x="530" y="94"/>
      <point x="605" y="94" type="qcurve" smooth="yes"/>
      <point x="704" y="94"/>
      <point x="812" y="278"/>
      <point x="812" y="505" type="qcurve" smooth="yes"/>
      <point x="812" y="727"/>
      <point x="706" y="890"/>
      <point x="615" y="890" type="qcurve" smooth="yes"/>
      <point x="541" y="890"/>
      <point x="444" y="816"/>
      <point x="415" y="759" type="qcurve"/>
      <point x="379" y="820" type="line"/>
      <point x="417" y="896"/>
      <point x="592" y="1020"/>
      <point x="731" y="1020" type="qcurve" smooth="yes"/>
      <point x="900" y="1020"/>
      <point x="1117" y="770"/>
      <point x="1117" y="530" type="qcurve" smooth="yes"/>
      <point x="1117" y="277"/>
      <point x="889" y="-12"/>
      <point x="683" y="-12" type="qcurve" smooth="yes"/>
      <point x="572" y="-12"/>
      <point x="402" y="68"/>
    </contour>
  </outline>
</glyph>
<glyph name="c" format="1">
  <advance width="1014"/>
  <unicode hex="0063"/>
  <outline>
    <contour>
      <point x="64" y="480" type="qcurve" smooth="yes"/>
      <point x="64" y="724"/>
      <point x="353" y="1022"/>
      <point x="559" y="1022" type="qcurve" smooth="yes"/>
      <point x="692" y="1022"/>
      <point x="862" y="960"/>
      <point x="916" y="901" type="qcurve"/>
      <point x="809" y="778" type="line"/>
      <point x="798" y="833"/>
      <point x="696" y="909"/>
      <point x="615" y="909" type="qcurve" smooth="yes"/>
      <point x="509" y="909"/>
      <point x="368" y="726"/>
      <point x="368" y="499" type="qcurve" smooth="yes"/>
      <point x="369" y="292"/>
      <point x="537" y="111"/>
      <point x="668" y="111" type="qcurve" smooth="yes"/>
      <point x="758" y="111"/>
      <point x="881" y="180"/>
      <point x="924" y="228" type="qcurve"/>
      <point x="988" y="170" type="line"/>
      <point x="943" y="99"/>
      <point x="749" y="-22"/>
      <point x="569" y="-22" type="qcurve" smooth="yes"/>
      <point x="344" y="-22"/>
      <point x="64" y="245"/>
    </contour>
    <contour>
      <point x="790" y="857" type="line"/>
      <point x="840" y="1006" type="line"/>
      <point x="929" y="1006" type="line"/>
      <point x="929" y="668" type="line"/>
      <point x="832" y="668" type="line"/>
    </contour>
  </outline>
</glyph>
<glyph name="d" format="1">
  <advance width="1207"/>
  <unicode hex="0064"/>
  <outline>
    <contour>
      <point x="68" y="485" type="qcurve" smooth="yes"/>
      <point x="68" y="743"/>
      <point x="325" y="1020"/>
      <point x="534" y="1020" type="qcurve" smooth="yes"/>
      <point x="635" y="1020"/>
      <point x="818" y="943"/>
      <point x="849" y="889" type="qcurve"/>
      <point x="796" y="808" type="line"/>
      <point x="772" y="857"/>
      <point x="675" y="912"/>
      <point x="605" y="912" type="qcurve" smooth="yes"/>
      <point x="496" y="912"/>
      <point x="371" y="720"/>
      <point x="371" y="508" type="qcurve" smooth="yes"/>
      <point x="371" y="290"/>
      <point x="482" y="109"/>
      <point x="581" y="109" type="qcurve" smooth="yes"/>
      <point x="658" y="109"/>
      <point x="769" y="188"/>
      <point x="799" y="252" type="qcurve"/>
      <point x="850" y="204" type="line"/>
      <point x="808" y="109"/>
      <point x="619" y="-9"/>
      <point x="484" y="-9" type="qcurve" smooth="yes"/>
      <point x="303" y="-9"/>
      <point x="68" y="242"/>
    </contour>
    <contour>
      <point x="653" y="1406" type="line"/>
      <point x="653" y="1500" type="line"/>
      <point x="1013" y="1534" type="line"/>
      <point x="1044" y="1534" type="line"/>
      <point x="1072" y="1502" type="line"/>
      <point x="1069" y="511" type="line"/>
      <point x="1078" y="115" type="line"/>
      <point x="1193" y="80" type="line"/>
      <point x="1193" y="0" type="line"/>
      <point x="859" y="0" type="line"/>
      <point x="808" y="60" type="line"/>
      <point x="788" y="152" type="line"/>
      <point x="790" y="510" type="line"/>
      <point x="779" y="1376" type="line"/>
    </contour>
  </outline>
</glyph>
<glyph name="e" format="1">
  <advance width="1006"/>
  <unicode hex="0065"/>
  <outline>
    <contour>
      <point x="64" y="500" type="qcurve" smooth="yes"/>
      <point x="64" y="739"/>
      <point x="332" y="1022"/>
      <point x="558" y="1022" type="qcurve" smooth="yes"/>
      <point x="762" y="1022"/>
      <point x="986" y="794"/>
      <point x="1007" y="589" type="qcurve"/>
      <point x="766" y="589" type="line"/>
      <point x="759" y="753"/>
      <point x="658" y="908"/>
      <point x="560" y="908" type="qcurve" smooth="yes"/>
      <point x="469" y="908"/>
      <point x="362" y="729"/>
      <point x="362" y="524" type="qcurve" smooth="yes"/>
      <point x="363" y="297"/>
      <point x="509" y="112"/>
      <point x="640" y="112" type="qcurve" smooth="yes"/>
      <point x="732" y="112"/>
      <point x="856" y="169"/>
      <point x="898" y="208" type="qcurve"/>
      <point x="964" y="158" type="line"/>
      <point x="921" y="87"/>
      <point x="731" y="-22"/>
      <point x="584" y="-22" type="qcurve" smooth="yes"/>
      <point x="344" y="-22"/>
      <point x="64" y="251"/>
    </contour>
    <contour>
      <point x="306" y="528" type="line"/>
      <point x="306" y="620" type="line"/>
      <point x="963" y="620" type="line"/>
      <point x="1007" y="589" type="line"/>
      <point x="1007" y="528" type="line"/>
    </contour>
  </outline>
</glyph>
<glyph name="f" format="1">
  <advance width="628"/>
  <unicode hex="0066"/>
  <outline>
    <contour>
      <point x="54" y="0" type="line"/>
      <point x="54" y="80" type="line"/>
      <point x="173" y="115" type="line"/>
      <point x="178" y="527" type="line"/>
      <point x="178" y="854" type="line"/>
      <point x="60" y="876" type="line"/>
      <point x="60" y="958" type="line"/>
      <point x="180" y="984" type="line"/>
      <point x="178" y="1286" type="line" smooth="yes"/>
      <point x="176" y="1415"/>
      <point x="302" y="1532"/>
      <point x="421" y="1532" type="qcurve"/>
      <point x="614" y="1500" type="line"/>
      <point x="614" y="1410" type="line"/>
      <point x="470" y="1387" type="line"/>
      <point x="467" y="528" type="line"/>
      <point x="471" y="115" type="line"/>
      <point x="612" y="80" type="line"/>
      <point x="612" y="0" type="line"/>
    </contour>
    <contour>
      <point x="442" y="872" type="line"/>
      <point x="446" y="974" type="line"/>
      <point x="622" y="974" type="line"/>
      <point x="622" y="872" type="line"/>
    </contour>
  </outline>
</glyph>
<glyph name="g" format="1">
  <advance width="1048"/>
  <unicode hex="0067"/>
  <outline>
    <contour>
      <point x="24" y="-237" type="qcurve" smooth="yes"/>
      <point x="24" y="-148"/>
      <point x="160" y="-34"/>
      <point x="279" y="-5" type="qcurve"/>
      <point x="331" y="-42" type="line"/>
      <point x="283" y="-72"/>
      <point x="218" y="-157"/>
      <point x="218" y="-216" type="qcurve" smooth="yes"/>
      <point x="218" y="-292"/>
      <point x="375" y="-379"/>
      <point x="529" y="-379" type="qcurve" smooth="yes"/>
      <point x="702" y="-379"/>
      <point x="855" y="-292"/>
      <point x="855" y="-213" type="qcurve" smooth="yes"/>
      <point x="855" y="-143"/>
      <point x="739" y="-98"/>
      <point x="543" y="-95" type="qcurve" smooth="yes"/>
      <point x="323" y="-91"/>
      <point x="84" y="17"/>
      <point x="84" y="132" type="qcurve" smooth="yes"/>
      <point x="84" y="223"/>
      <point x="202" y="337"/>
      <point x="276" y="362" type="qcurve"/>
      <point x="335" y="300" type="line"/>
      <point x="282" y="272"/>
      <point x="230" y="227"/>
      <point x="230" y="182" type="qcurve" smooth="yes"/>
      <point x="230" y="138"/>
      <point x="357" y="91"/>
      <point x="570" y="87" type="qcurve" smooth="yes"/>
      <point x="839" y="82"/>
      <point x="1116" y="-22"/>
      <point x="1116" y="-152" type="qcurve" smooth="yes"/>
      <point x="1116" y="-301"/>
      <point x="842" y="-484"/>
      <point x="529" y="-484" type="qcurve" smooth="yes"/>
      <point x="271" y="-484"/>
      <point x="24" y="-347"/>
    </contour>
    <contour>
      <point x="101" y="629" type="qcurve" smooth="yes"/>
      <point x="101" y="816"/>
      <point x="330" y="1022"/>
      <point x="534" y="1022" type="qcurve" smooth="yes"/>
      <point x="739" y="1022"/>
      <point x="973" y="823"/>
      <point x="973" y="634" type="qcurve" smooth="yes"/>
      <point x="974" y="451"/>
      <point x="745" y="217"/>
      <point x="540" y="217" type="qcurve" smooth="yes"/>
      <point x="334" y="217"/>
      <point x="101" y="435"/>
    </contour>
    <contour>
      <point x="366" y="635" type="qcurve" smooth="yes"/>
      <point x="366" y="460"/>
      <point x="458" y="319"/>
      <point x="538" y="319" type="qcurve" smooth="yes"/>
      <point x="623" y="319"/>
      <point x="710" y="453"/>
      <point x="710" y="628" type="qcurve" smooth="yes"/>
      <point x="710" y="785"/>
      <point x="618" y="908"/>
      <point x="539" y="908" type="qcurve" smooth="yes"/>
      <point x="456" y="908"/>
      <point x="366" y="796"/>
    </contour>
    <contour>
      <point x="633" y="932" type="line"/>
      <point x="618" y="1000" type="line"/>
      <point x="1090" y="1007" type="line"/>
      <point x="1090" y="879" type="line"/>
    </contour>
  </outline>
</glyph>
<glyph name="h" format="1">
  <advance width="1258"/>
  <unicode hex="0068"/>
  <outline>
    <contour>
      <point x="71" y="0" type="line"/>
      <point x="71" y="80" type="line"/>
      <point x="181" y="115" type="line"/>
      <point x="183" y="527" type="line"/>
      <point x="181" y="1376" type="line"/>
      <point x="52" y="1406" type="line"/>
      <point x="52" y="1500" type="line"/>
      <point x="414" y="1534" type="line"/>
      <point x="446" y="1534" type="line"/>
      <point x="474" y="1502" type="line"/>
      <point x="472" y="527" type="line"/>
      <point x="474" y="115" type="line"/>
      <point x="576" y="80" type="line"/>
      <point x="576" y="0" type="line"/>
    </contour>
    <contour>
      <point x="470" y="758" type="qcurve"/>
      <point x="436" y="816" type="line"/>
      <point x="483" y="906"/>
      <point x="684" y="1022"/>
      <point x="816" y="1022" type="qcurve" smooth="yes"/>
      <point x="966" y="1022"/>
      <point x="1117" y="897"/>
      <point x="1117" y="794" type="qcurve" smooth="yes"/>
      <point x="1117" y="734"/>
      <point x="1113" y="527"/>
      <point x="1113" y="527" type="qcurve"/>
      <point x="1118" y="115" type="line"/>
      <point x="1231" y="80" type="line"/>
      <point x="1231" y="0" type="line"/>
      <point x="711" y="0" type="line"/>
      <point x="711" y="80" type="line"/>
      <point x="825" y="115" type="line"/>
      <point x="827" y="527" type="line"/>
      <point x="827" y="741" type="line" smooth="yes"/>
      <point x="827" y="794"/>
      <point x="753" y="873"/>
      <point x="683" y="873" type="qcurve" smooth="yes"/>
      <point x="626" y="873"/>
      <point x="508" y="815"/>
    </contour>
  </outline>
</glyph>
<glyph name="i" format="1">
  <advance width="639"/>
  <unicode hex="0069"/>
  <outline>
    <contour>
      <point x="78" y="0" type="line"/>
      <point x="78" y="80" type="line"/>
      <point x="202" y="115" type="line"/>
      <point x="204" y="527" type="line"/>
      <point x="198" y="847" type="line"/>
      <point x="72" y="877" type="line"/>
      <point x="72" y="971" type="line"/>
      <point x="432" y="1003" type="line"/>
      <point x="478" y="1003" type="line"/>
      <point x="501" y="964" type="line"/>
      <point x="494" y="527" type="line"/>
      <point x="496" y="115" type="line"/>
      <point x="614" y="80" type="line"/>
      <point x="614" y="0" type="line"/>
    </contour>
    <contour>
      <point x="161" y="1315" type="qcurve" smooth="yes"/>
      <point x="161" y="1379"/>
      <point x="254" y="1469"/>
      <point x="340" y="1469" type="qcurve" smooth="yes"/>
      <point x="422" y="1469"/>
      <point x="521" y="1379"/>
      <point x="520" y="1315" type="qcurve" smooth="yes"/>
      <point x="520" y="1255"/>
      <point x="427" y="1201"/>
      <point x="341" y="1201" type="qcurve" smooth="yes"/>
      <point x="259" y="1201"/>
      <point x="161" y="1258"/>
    </contour>
  </outline>
</glyph>
<glyph name="j" format="1">
  <advance width="556"/>
  <unicode hex="006A"/>
  <outline>
    <contour>
      <point x="40" y="-428" type="line"/>
      <point x="40" y="-356" type="line"/>
      <point x="174" y="-321" type="line"/>
      <point x="172" y="527" type="line"/>
      <point x="166" y="846" type="line"/>
      <point x="52" y="876" type="line"/>
      <point x="52" y="970" type="line"/>
      <point x="399" y="1004" type="line"/>
      <point x="446" y="1004" type="line"/>
      <point x="469" y="965" type="line"/>
      <point x="463" y="527" type="line"/>
      <point x="465" y="-200" type="line" smooth="yes"/>
      <point x="465" y="-345"/>
      <point x="328" y="-460"/>
      <point x="203" y="-460" type="qcurve"/>
    </contour>
    <contour>
      <point x="132" y="1313" type="qcurve" smooth="yes"/>
      <point x="132" y="1379"/>
      <point x="224" y="1468"/>
      <point x="311" y="1468" type="qcurve" smooth="yes"/>
      <point x="392" y="1468"/>
      <point x="489" y="1378"/>
      <point x="489" y="1314" type="qcurve" smooth="yes"/>
      <point x="489" y="1260"/>
      <point x="417" y="1202"/>
      <point x="311" y="1202" type="qcurve" smooth="yes"/>
      <point x="209" y="1202"/>
      <point x="132" y="1262"/>
    </contour>
  </outline>
</glyph>
<glyph name="k" format="1">
  <advance width="1072"/>
  <unicode hex="006B"/>
  <outline>
    <contour>
      <point x="67" y="0" type="line"/>
      <point x="67" y="80" type="line"/>
      <point x="162" y="115" type="line"/>
      <point x="164" y="527" type="line"/>
      <point x="162" y="1376" type="line"/>
      <point x="52" y="1406" type="line"/>
      <point x="52" y="1500" type="line"/>
      <point x="396" y="1534" type="line"/>
      <point x="428" y="1534" type="line"/>
      <point x="456" y="1502" type="line"/>
      <point x="454" y="507" type="line"/>
      <point x="456" y="115" type="line"/>
      <point x="543" y="80" type="line"/>
      <point x="543" y="0" type="line"/>
    </contour>
    <contour>
      <point x="420" y="311" type="line"/>
      <point x="412" y="495" type="line"/>
      <point x="726" y="880" type="line"/>
      <point x="625" y="910" type="line"/>
      <point x="625" y="1000" type="line"/>
      <point x="999" y="1000" type="line"/>
      <point x="999" y="910" type="line"/>
      <point x="875" y="875" type="line"/>
    </contour>
    <contour>
      <point x="515" y="556" type="line"/>
      <point x="705" y="769" type="line"/>
      <point x="1025" y="115" type="line"/>
      <point x="1105" y="80" type="line"/>
      <point x="1105" y="0" type="line"/>
      <point x="792" y="0" type="line"/>
      <point x="758" y="25" type="line"/>
      <point x="714" y="115" type="line"/>
    </contour>
  </outline>
</glyph>
<glyph name="l" format="1">
  <advance width="632"/>
  <unicode hex="006C"/>
  <outline>
    <contour>
      <point x="72" y="0" type="line"/>
      <point x="72" y="80" type="line"/>
      <point x="195" y="115" type="line"/>
      <point x="197" y="527" type="line"/>
      <point x="195" y="1376" type="line"/>
      <point x="52" y="1406" type="line"/>
      <point x="52" y="1500" type="line"/>
      <point x="428" y="1534" type="line"/>
      <point x="465" y="1532" type="line"/>
      <point x="488" y="1501" type="line"/>
      <point x="486" y="527" type="line"/>
      <point x="488" y="115" type="line"/>
      <point x="606" y="80" type="line"/>
      <point x="606" y="0" type="line"/>
    </contour>
  </outline>
</glyph>
<glyph name="m" format="1">
  <advance width="1916"/>
  <unicode hex="006D"/>
  <outline>
    <contour>
      <point x="76" y="0" type="line"/>
      <point x="76" y="80" type="line"/>
      <point x="191" y="115" type="line"/>
      <point x="193" y="527" type="line"/>
      <point x="191" y="845" type="line"/>
      <point x="76" y="875" type="line"/>
      <point x="76" y="969" type="line"/>
      <point x="422" y="1003" type="line"/>
      <point x="457" y="976" type="line"/>
      <point x="482" y="875" type="line"/>
      <point x="480" y="527" type="line"/>
      <point x="482" y="115" type="line"/>
      <point x="586" y="80" type="line"/>
      <point x="586" y="0" type="line"/>
    </contour>
    <contour>
      <point x="478" y="759" type="qcurve"/>
      <point x="443" y="814" type="line"/>
      <point x="493" y="903"/>
      <point x="699" y="1021"/>
      <point x="827" y="1021" type="qcurve" smooth="yes"/>
      <point x="979" y="1021"/>
      <point x="1131" y="899"/>
      <point x="1131" y="795" type="qcurve" smooth="yes"/>
      <point x="1131" y="723"/>
      <point x="1127" y="527"/>
      <point x="1127" y="527" type="qcurve"/>
      <point x="1132" y="115" type="line"/>
      <point x="1241" y="80" type="line"/>
      <point x="1241" y="0" type="line"/>
      <point x="723" y="0" type="line"/>
      <point x="723" y="80" type="line"/>
      <point x="838" y="115" type="line"/>
      <point x="840" y="527" type="line"/>
      <point x="840" y="742" type="line" smooth="yes"/>
      <point x="840" y="804"/>
      <point x="758" y="874"/>
      <point x="694" y="874" type="qcurve" smooth="yes"/>
      <point x="631" y="874"/>
      <point x="516" y="812"/>
    </contour>
    <contour>
      <point x="1125" y="759" type="qcurve"/>
      <point x="1090" y="814" type="line"/>
      <point x="1139" y="903"/>
      <point x="1345" y="1021"/>
      <point x="1473" y="1021" type="qcurve" smooth="yes"/>
      <point x="1626" y="1021"/>
      <point x="1776" y="896"/>
      <point x="1776" y="790" type="qcurve" smooth="yes"/>
      <point x="1776" y="719"/>
      <point x="1773" y="527"/>
      <point x="1773" y="527" type="qcurve"/>
      <point x="1778" y="115" type="line"/>
      <point x="1892" y="80" type="line"/>
      <point x="1892" y="0" type="line"/>
      <point x="1370" y="0" type="line"/>
      <point x="1370" y="80" type="line"/>
      <point x="1485" y="115" type="line"/>
      <point x="1487" y="527" type="line"/>
      <point x="1487" y="742" type="line" smooth="yes"/>
      <point x="1487" y="804"/>
      <point x="1409" y="874"/>
      <point x="1341" y="874" type="qcurve" smooth="yes"/>
      <point x="1276" y="874"/>
      <point x="1162" y="812"/>
    </contour>
  </outline>
</glyph>
<glyph name="n" format="1">
  <advance width="1264"/>
  <unicode hex="006E"/>
  <outline>
    <contour>
      <point x="76" y="0" type="line"/>
      <point x="76" y="80" type="line"/>
      <point x="189" y="115" type="line"/>
      <point x="191" y="527" type="line"/>
      <point x="189" y="845" type="line"/>
      <point x="76" y="875" type="line"/>
      <point x="76" y="969" type="line"/>
      <point x="422" y="1003" type="line"/>
      <point x="457" y="976" type="line"/>
      <point x="482" y="875" type="line"/>
      <point x="480" y="527" type="line"/>
      <point x="482" y="115" type="line"/>
      <point x="584" y="80" type="line"/>
      <point x="584" y="0" type="line"/>
    </contour>
    <contour>
      <point x="478" y="757" type="qcurve"/>
      <point x="443" y="815" type="line"/>
      <point x="492" y="907"/>
      <point x="697" y="1022"/>
      <point x="826" y="1022" type="qcurve" smooth="yes"/>
      <point x="977" y="1022"/>
      <point x="1126" y="896"/>
      <point x="1126" y="792" type="qcurve" smooth="yes"/>
      <point x="1126" y="721"/>
      <point x="1123" y="528"/>
      <point x="1123" y="528" type="qcurve"/>
      <point x="1127" y="115" type="line"/>
      <point x="1241" y="80" type="line"/>
      <point x="1241" y="0" type="line"/>
      <point x="720" y="0" type="line"/>
      <point x="720" y="80" type="line"/>
      <point x="834" y="115" type="line"/>
      <point x="836" y="527" type="line"/>
      <point x="836" y="739" type="line" smooth="yes"/>
      <point x="836" y="803"/>
      <point x="758" y="873"/>
      <point x="692" y="873" type="qcurve" smooth="yes"/>
      <point x="628" y="873"/>
      <point x="512" y="809"/>
    </contour>
  </outline>
</glyph>
<glyph name="o" format="1">
  <advance width="1168"/>
  <unicode hex="006F"/>
  <outline>
    <contour>
      <point x="64" y="500" type="qcurve" smooth="yes"/>
      <point x="64" y="742"/>
      <point x="359" y="1022"/>
      <point x="602" y="1022" type="qcurve" smooth="yes"/>
      <point x="851" y="1022"/>
      <point x="1145" y="754"/>
      <point x="1145" y="506" type="qcurve" smooth="yes"/>
      <point x="1145" y="265"/>
      <point x="856" y="-22"/>
      <point x="606" y="-22" type="qcurve" smooth="yes"/>
      <point x="360" y="-22"/>
      <point x="64" y="254"/>
    </contour>
    <contour>
      <point x="368" y="520" type="qcurve" smooth="yes"/>
      <point x="369" y="313"/>
      <point x="490" y="88"/>
      <point x="604" y="88" type="qcurve" smooth="yes"/>
      <point x="720" y="88"/>
      <point x="838" y="288"/>
      <point x="837" y="506" type="qcurve" smooth="yes"/>
      <point x="836" y="714"/>
      <point x="713" y="906"/>
      <point x="601" y="906" type="qcurve" smooth="yes"/>
      <point x="485" y="906"/>
      <point x="368" y="727"/>
    </contour>
  </outline>
</glyph>
<glyph name="p" format="1">
  <advance width="1198"/>
  <unicode hex="0070"/>
  <outline>
    <contour>
      <point x="60" y="-456" type="line"/>
      <point x="60" y="-376" type="line"/>
      <point x="168" y="-341" type="line"/>
      <point x="170" y="427" type="line"/>
      <point x="168" y="845" type="line"/>
      <point x="56" y="875" type="line"/>
      <point x="56" y="969" type="line"/>
      <point x="400" y="1003" type="line"/>
      <point x="435" y="976" type="line"/>
      <point x="459" y="875" type="line"/>
      <point x="458" y="427" type="line"/>
      <point x="460" y="-341" type="line"/>
      <point x="578" y="-376" type="line"/>
      <point x="578" y="-456" type="line"/>
    </contour>
    <contour>
      <point x="418" y="112" type="qcurve"/>
      <point x="456" y="204" type="line"/>
      <point x="477" y="157"/>
      <point x="580" y="91"/>
      <point x="651" y="91" type="qcurve" smooth="yes"/>
      <point x="751" y="91"/>
      <point x="863" y="276"/>
      <point x="863" y="505" type="qcurve" smooth="yes"/>
      <point x="863" y="732"/>
      <point x="755" y="890"/>
      <point x="660" y="890" type="qcurve" smooth="yes"/>
      <point x="585" y="890"/>
      <point x="483" y="821"/>
      <point x="455" y="768" type="qcurve"/>
      <point x="425" y="832" type="line"/>
      <point x="466" y="914"/>
      <point x="640" y="1020"/>
      <point x="776" y="1020" type="qcurve" smooth="yes"/>
      <point x="945" y="1020"/>
      <point x="1168" y="772"/>
      <point x="1168" y="530" type="qcurve" smooth="yes"/>
      <point x="1168" y="275"/>
      <point x="939" y="-12"/>
      <point x="727" y="-12" type="qcurve" smooth="yes"/>
      <point x="613" y="-12"/>
      <point x="450" y="66"/>
    </contour>
  </outline>
</glyph>
<glyph name="q" format="1">
  <advance width="1188"/>
  <unicode hex="0071"/>
  <outline>
    <contour>
      <point x="13.851851851851855" y="497" type="qcurve" smooth="yes"/>
      <point x="13.851851851851855" y="770"/>
      <point x="255.85185185185185" y="1021"/>
      <point x="437.85185185185185" y="1021" type="qcurve" smooth="yes"/>
      <point x="539.8518518518518" y="1021"/>
      <point x="691.8518518518518" y="943"/>
      <point x="724.8518518518518" y="888" type="qcurve"/>
      <point x="647.8518518518518" y="847" type="line"/>
      <point x="635.8518518518518" y="874"/>
      <point x="602.8518518518518" y="901"/>
      <point x="576.8518518518518" y="901" type="qcurve" smooth="yes"/>
      <point x="542.8518518518518" y="901"/>
      <point x="509.85185185185185" y="794"/>
      <point x="509.85185185185185" y="503" type="qcurve" smooth="yes"/>
      <point x="509.85185185185185" y="220"/>
      <point x="535.8518518518518" y="102"/>
      <point x="573.8518518518518" y="102" type="qcurve" smooth="yes"/>
      <point x="606.8518518518518" y="102"/>
      <point x="641.8518518518518" y="165"/>
      <point x="651.8518518518518" y="212" type="qcurve"/>
      <point x="719.8518518518518" y="212" type="line"/>
      <point x="684.8518518518518" y="98"/>
      <point x="520.8518518518518" y="-9"/>
      <point x="384.85185185185185" y="-9" type="qcurve" smooth="yes"/>
      <point x="236.85185185185185" y="-9"/>
      <point x="13.851851851851855" y="222"/>
    </contour>
    <contour>
      <point x="569.8518518518518" y="-416" type="line"/>
      <point x="569.8518518518518" y="-336" type="line"/>
      <point x="633.8518518518518" y="-301" type="line"/>
      <point x="640.8518518518518" y="219" type="line"/>
      <point x="642.8518518518518" y="912" type="line"/>
      <point x="712.8518518518518" y="1003" type="line"/>
      <point x="1179.851851851852" y="974" type="line"/>
      <point x="1179.851851851852" y="876" type="line"/>
      <point x="1130.851851851852" y="861" type="line"/>
      <point x="1123.851851851852" y="428" type="line"/>
      <point x="1125.851851851852" y="-301" type="line"/>
      <point x="1177.851851851852" y="-336" type="line"/>
      <point x="1177.851851851852" y="-416" type="line"/>
    </contour>
  </outline>
</glyph>
<glyph name="r" format="1">
  <advance width="864"/>
  <unicode hex="0072"/>
  <outline>
    <contour>
      <point x="76" y="0" type="line"/>
      <point x="76" y="80" type="line"/>
      <point x="192" y="115" type="line"/>
      <point x="194" y="527" type="line"/>
      <point x="192" y="845" type="line"/>
      <point x="76" y="875" type="line"/>
      <point x="76" y="969" type="line"/>
      <point x="424" y="1003" type="line"/>
      <point x="459" y="976" type="line"/>
      <point x="484" y="875" type="line"/>
      <point x="482" y="527" type="line"/>
      <point x="484" y="115" type="line"/>
      <point x="608" y="80" type="line"/>
      <point x="608" y="0" type="line"/>
    </contour>
    <contour>
      <point x="444" y="705" type="qcurve"/>
      <point x="410" y="770" type="line"/>
      <point x="443" y="868"/>
      <point x="637" y="1002"/>
      <point x="785" y="1002" type="qcurve" smooth="yes"/>
      <point x="865" y="1002" type="line"/>
      <point x="865" y="745" type="line"/>
      <point x="760" y="745" type="line"/>
      <point x="730" y="870" type="line"/>
      <point x="653" y="870"/>
      <point x="496" y="788"/>
    </contour>
  </outline>
</glyph>
<glyph name="s" format="1">
  <advance width="872"/>
  <unicode hex="0073"/>
  <outline>
    <contour>
      <point x="14.04" y="0" type="line"/>
      <point x="14.04" y="329" type="line"/>
      <point x="106.03999999999999" y="329" type="line"/>
      <point x="153.04" y="118" type="line"/>
      <point x="90.03999999999999" y="0" type="line"/>
    </contour>
    <contour>
      <point x="19.04" y="744" type="qcurve" smooth="yes"/>
      <point x="19.04" y="883"/>
      <point x="239.04" y="1018"/>
      <point x="413.04" y="1018" type="qcurve" smooth="yes"/>
      <point x="534.04" y="1018"/>
      <point x="673.04" y="967"/>
      <point x="735.04" y="914" type="qcurve"/>
      <point x="722.04" y="813" type="line"/>
      <point x="666.04" y="857"/>
      <point x="497.04" y="914"/>
      <point x="410.04" y="914" type="qcurve" smooth="yes"/>
      <point x="372.04" y="914"/>
      <point x="338.04" y="882"/>
      <point x="338.04" y="856" type="qcurve" smooth="yes"/>
      <point x="338.04" y="812"/>
      <point x="405.04" y="735"/>
      <point x="555.04" y="677" type="qcurve" smooth="yes"/>
      <point x="716.04" y="608"/>
      <point x="859.04" y="434"/>
      <point x="859.04" y="299" type="qcurve" smooth="yes"/>
      <point x="859.04" y="150"/>
      <point x="646.04" y="-14"/>
      <point x="466.04" y="-14" type="qcurve" smooth="yes"/>
      <point x="306.04" y="-14"/>
      <point x="114.03999999999999" y="64"/>
      <point x="77.03999999999999" y="120" type="qcurve"/>
      <point x="106.03999999999999" y="230" type="line"/>
      <point x="129.04" y="173"/>
      <point x="296.04" y="83"/>
      <point x="402.04" y="83" type="qcurve" smooth="yes"/>
      <point x="455.04" y="83"/>
      <point x="502.04" y="127"/>
      <point x="502.04" y="171" type="qcurve" smooth="yes"/>
      <point x="502.04" y="226"/>
      <point x="432.04" y="295"/>
      <point x="354.04" y="346" type="qcurve"/>
      <point x="189.04" y="421"/>
      <point x="19.04" y="595"/>
    </contour>
    <contour>
      <point x="679.04" y="886" type="line"/>
      <point x="733.04" y="1001" type="line"/>
      <point x="817.04" y="1001" type="line"/>
      <point x="817.04" y="705" type="line"/>
      <point x="718.04" y="705" type="line"/>
    </contour>
  </outline>
</glyph>
<glyph name="t" format="1">
  <advance width="612"/>
  <unicode hex="0074"/>
  <outline>
    <contour>
      <point x="16" y="874" type="line"/>
      <point x="16" y="957" type="line"/>
      <point x="105" y="988"/>
      <point x="221" y="1129"/>
      <point x="253" y="1203" type="qcurve"/>
      <point x="396" y="1203" type="line"/>
      <point x="436" y="1155" type="line"/>
      <point x="419" y="527" type="line"/>
      <point x="428" y="155" type="line"/>
      <point x="468" y="112" type="line"/>
      <point x="580" y="112" type="line"/>
      <point x="580" y="32" type="line"/>
      <point x="266" y="-8" type="line"/>
      <point x="184" y="-8"/>
      <point x="124" y="66"/>
      <point x="124" y="135" type="qcurve"/>
      <point x="131" y="527" type="line"/>
      <point x="131" y="855" type="line"/>
    </contour>
    <contour>
      <point x="348" y="872" type="line"/>
      <point x="352" y="974" type="line"/>
      <point x="592" y="974" type="line"/>
      <point x="592" y="872" type="line"/>
    </contour>
  </outline>
</glyph>
<glyph name="u" format="1">
  <advance width="1244"/>
  <unicode hex="0075"/>
  <outline>
    <contour>
      <point x="10.557377049180332" y="881" type="line"/>
      <point x="10.557377049180332" y="975" type="line"/>
      <point x="492.55737704918033" y="1009" type="line"/>
      <point x="527.5573770491803" y="1009" type="line"/>
      <point x="552.5573770491803" y="973" type="line"/>
      <point x="552.5573770491803" y="473" type="line"/>
      <point x="552.5573770491803" y="302" type="line" smooth="yes"/>
      <point x="552.5573770491803" y="184"/>
      <point x="579.5573770491803" y="141"/>
      <point x="605.5573770491803" y="141" type="qcurve" smooth="yes"/>
      <point x="634.5573770491803" y="141"/>
      <point x="673.5573770491803" y="194"/>
      <point x="683.5573770491803" y="250" type="qcurve"/>
      <point x="728.5573770491803" y="177" type="line"/>
      <point x="691.5573770491803" y="96"/>
      <point x="488.55737704918033" y="-16"/>
      <point x="360.55737704918033" y="-16" type="qcurve" smooth="yes"/>
      <point x="211.55737704918033" y="-16"/>
      <point x="63.55737704918033" y="117"/>
      <point x="63.55737704918033" y="281" type="qcurve" smooth="yes"/>
      <point x="63.55737704918033" y="352"/>
      <point x="65.55737704918033" y="473"/>
      <point x="65.55737704918033" y="473" type="qcurve"/>
      <point x="60.55737704918033" y="851" type="line"/>
    </contour>
    <contour>
      <point x="631.5573770491803" y="881" type="line"/>
      <point x="631.5573770491803" y="975" type="line"/>
      <point x="1112.5573770491803" y="1009" type="line"/>
      <point x="1147.5573770491803" y="1009" type="line"/>
      <point x="1172.5573770491803" y="973" type="line"/>
      <point x="1170.5573770491803" y="473" type="line"/>
      <point x="1172.5573770491803" y="140" type="line"/>
      <point x="1231.5573770491803" y="110" type="line"/>
      <point x="1231.5573770491803" y="26" type="line"/>
      <point x="740.5573770491803" y="-8" type="line"/>
      <point x="705.5573770491803" y="19" type="line"/>
      <point x="684.5573770491803" y="102" type="line"/>
      <point x="682.5573770491803" y="473" type="line"/>
      <point x="680.5573770491803" y="851" type="line"/>
    </contour>
  </outline>
</glyph>
<glyph name="v" format="1">
  <advance width="1046"/>
  <unicode hex="0076"/>
  <outline>
    <contour>
      <point x="-10" y="910" type="line"/>
      <point x="-10" y="1000" type="line"/>
      <point x="475" y="1000" type="line"/>
      <point x="475" y="910" type="line"/>
      <point x="373" y="873" type="line"/>
      <point x="483" y="562" type="line"/>
      <point x="594" y="271" type="line"/>
      <point x="704" y="580" type="line"/>
      <point x="812" y="880" type="line"/>
      <point x="706" y="910" type="line"/>
      <point x="706" y="1000" type="line"/>
      <point x="1049" y="1000" type="line"/>
      <point x="1049" y="910" type="line"/>
      <point x="936" y="875" type="line"/>
      <point x="806" y="546" type="line"/>
      <point x="630" y="-8" type="line"/>
      <point x="400" y="-8" type="line"/>
      <point x="236" y="468" type="line"/>
      <point x="80" y="875" type="line"/>
    </contour>
  </outline>
</glyph>
<glyph name="w" format="1">
  <advance width="1593"/>
  <unicode hex="0077"/>
  <outline>
    <contour>
      <point x="-10" y="910" type="line"/>
      <point x="-10" y="1000" type="line"/>
      <point x="466" y="1000" type="line"/>
      <point x="466" y="910" type="line"/>
      <point x="365" y="873" type="line"/>
      <point x="461" y="556" type="line"/>
      <point x="566" y="232" type="line"/>
      <point x="659" y="517" type="line"/>
      <point x="767" y="872" type="line"/>
      <point x="845" y="779" type="line"/>
      <point x="739" y="469" type="line"/>
      <point x="600" y="-8" type="line"/>
      <point x="371" y="-8" type="line"/>
      <point x="218" y="483" type="line"/>
      <point x="81" y="875" type="line"/>
    </contour>
    <contour>
      <point x="604" y="910" type="line"/>
      <point x="604" y="1000" type="line"/>
      <point x="1072" y="1000" type="line"/>
      <point x="1072" y="910" type="line"/>
      <point x="967" y="873" type="line"/>
      <point x="1073" y="527" type="line"/>
      <point x="1169" y="234" type="line"/>
      <point x="1275" y="553" type="line"/>
      <point x="1373" y="880" type="line"/>
      <point x="1267" y="910" type="line"/>
      <point x="1267" y="1000" type="line"/>
      <point x="1603" y="1000" type="line"/>
      <point x="1603" y="910" type="line"/>
      <point x="1491" y="875" type="line"/>
      <point x="1367" y="520" type="line"/>
      <point x="1211" y="-8" type="line"/>
      <point x="982" y="-8" type="line"/>
      <point x="836" y="485" type="line"/>
      <point x="698" y="875" type="line"/>
    </contour>
  </outline>
</glyph>
<glyph name="x" format="1">
  <advance width="1043"/>
  <unicode hex="0078"/>
  <outline>
    <contour>
      <point x="16" y="0" type="line"/>
      <point x="16" y="84" type="line"/>
      <point x="134" y="119" type="line"/>
      <point x="428" y="543" type="line"/>
      <point x="539" y="552" type="line"/>
      <point x="760" y="880" type="line"/>
      <point x="658" y="910" type="line"/>
      <point x="658" y="1000" type="line"/>
      <point x="1000" y="1000" type="line"/>
      <point x="1000" y="910" type="line"/>
      <point x="884" y="875" type="line"/>
      <point x="609" y="487" type="line"/>
      <point x="501" y="483" type="line"/>
      <point x="257" y="114" type="line"/>
      <point x="355" y="84" type="line"/>
      <point x="355" y="0" type="line"/>
    </contour>
    <contour>
      <point x="20" y="910" type="line"/>
      <point x="20" y="1000" type="line"/>
      <point x="523" y="1000" type="line"/>
      <point x="523" y="910" type="line"/>
      <point x="437" y="873" type="line"/>
      <point x="648" y="561" type="line"/>
      <point x="945" y="119" type="line"/>
      <point x="1052" y="84" type="line"/>
      <point x="1052" y="0" type="line"/>
      <point x="523" y="0" type="line"/>
      <point x="523" y="84" type="line"/>
      <point x="620" y="121" type="line"/>
      <point x="394" y="465" type="line"/>
      <point x="112" y="875" type="line"/>
    </contour>
  </outline>
</glyph>
<glyph name="y" format="1">
  <advance width="1046"/>
  <unicode hex="0079"/>
  <outline>
    <contour>
      <point x="-10" y="910" type="line"/>
      <point x="-10" y="1000" type="line"/>
      <point x="476" y="1000" type="line"/>
      <point x="476" y="910" type="line"/>
      <point x="371" y="873" type="line"/>
      <point x="486" y="559" type="line"/>
      <point x="595" y="269" type="line"/>
      <point x="704" y="575" type="line"/>
      <point x="815" y="880" type="line"/>
      <point x="706" y="910" type="line"/>
      <point x="706" y="1000" type="line"/>
      <point x="1056" y="1000" type="line"/>
      <point x="1056" y="910" type="line"/>
      <point x="940" y="875" type="line"/>
      <point x="807" y="541" type="line"/>
      <point x="565" y="-207" type="line"/>
      <point x="503" y="-366"/>
      <point x="295" y="-488"/>
      <point x="176" y="-488" type="qcurve"/>
      <point x="19" y="-446" type="line"/>
      <point x="19" y="-356" type="line"/>
      <point x="146" y="-358" type="line" smooth="yes"/>
      <point x="234" y="-360"/>
      <point x="418" y="-273"/>
      <point x="467" y="-149" type="qcurve"/>
      <point x="409" y="-3" type="line"/>
      <point x="240" y="468" type="line"/>
      <point x="82" y="875" type="line"/>
    </contour>
  </outline>
</glyph>
<glyph name="z" format="1">
  <advance width="885"/>
  <unicode hex="007A"/>
  <outline>
    <contour>
      <point x="32" y="0" type="line"/>
      <point x="32" y="90" type="line"/>
      <point x="519" y="884" type="line"/>
      <point x="189" y="884" type="line"/>
      <point x="162" y="740" type="line"/>
      <point x="57" y="740" type="line"/>
      <point x="57" y="1000" type="line"/>
      <point x="846" y="1000" type="line"/>
      <point x="846" y="911" type="line"/>
      <point x="348" y="116" type="line"/>
      <point x="734" y="116" type="line"/>
      <point x="761" y="260" type="line"/>
      <point x="866" y="260" type="line"/>
      <point x="866" y="0" type="line"/>
    </contour>
  </outline>
</glyph>
<glyph name="braceleft" format="1">
  <advance width="693"/>
  <unicode hex="007B"/>
  <outline>
    <contour>
      <point x="60" y="481" type="line"/>
      <point x="60" y="589" type="line"/>
      <point x="161" y="599" type="line" smooth="yes"/>
      <point x="213" y="606"/>
      <point x="275" y="660"/>
      <point x="275" y="731" type="qcurve" smooth="yes"/>
      <point x="275" y="834"/>
      <point x="150" y="1066"/>
      <point x="150" y="1184" type="qcurve" smooth="yes"/>
      <point x="150" y="1343"/>
      <point x="335" y="1510"/>
      <point x="470" y="1510" type="qcurve" smooth="yes"/>
      <point x="532" y="1510"/>
      <point x="662" y="1503"/>
      <point x="694" y="1500" type="qcurve"/>
      <point x="694" y="1386" type="line"/>
      <point x="649" y="1388"/>
      <point x="600" y="1388"/>
      <point x="558" y="1388" type="qcurve" smooth="yes"/>
      <point x="484" y="1388"/>
      <point x="403" y="1299"/>
      <point x="403" y="1201" type="qcurve" smooth="yes"/>
      <point x="403" y="1099"/>
      <point x="524" y="883"/>
      <point x="524" y="792" type="qcurve" smooth="yes"/>
      <point x="524" y="697"/>
      <point x="443" y="575"/>
      <point x="366" y="553" type="qcurve"/>
      <point x="450" y="524"/>
      <point x="524" y="399"/>
      <point x="524" y="326" type="qcurve" smooth="yes"/>
      <point x="524" y="231"/>
      <point x="393" y="-78"/>
      <point x="393" y="-180" type="qcurve" smooth="yes"/>
      <point x="393" y="-278"/>
      <point x="476" y="-373"/>
      <point x="552" y="-373" type="qcurve" smooth="yes"/>
      <point x="594" y="-373"/>
      <point x="645" y="-373"/>
      <point x="690" y="-371" type="qcurve"/>
      <point x="690" y="-483" type="line"/>
      <point x="658" y="-486"/>
      <point x="535" y="-495"/>
      <point x="473" y="-495" type="qcurve" smooth="yes"/>
      <point x="323" y="-495"/>
      <point x="140" y="-327"/>
      <point x="140" y="-168" type="qcurve" smooth="yes"/>
      <point x="140" y="-50"/>
      <point x="274" y="246"/>
      <point x="274" y="364" type="qcurve" smooth="yes"/>
      <point x="274" y="481" type="line"/>
    </contour>
  </outline>
</glyph>
<glyph name="bar" format="1">
  <advance width="604"/>
  <unicode hex="007C"/>
  <outline>
    <contour>
      <point x="207" y="-536" type="line"/>
      <point x="219" y="-58" type="line"/>
      <point x="235" y="250" type="line"/>
      <point x="233" y="830" type="line"/>
      <point x="219" y="1138" type="line"/>
      <point x="207" y="1484" type="line"/>
      <point x="482" y="1546" type="line"/>
      <point x="470" y="1138" type="line"/>
      <point x="453" y="830" type="line"/>
      <point x="455" y="250" type="line"/>
      <point x="470" y="-58" type="line"/>
      <point x="482" y="-474" type="line"/>
    </contour>
  </outline>
</glyph>
<glyph name="braceright" format="1">
  <advance width="693"/>
  <unicode hex="007D"/>
  <outline>
    <contour>
      <point x="652.7142857142857" y="481" type="line"/>
      <point x="472.7142857142857" y="481" type="line"/>
      <point x="472.7142857142857" y="364" type="line" smooth="yes"/>
      <point x="472.7142857142857" y="246"/>
      <point x="631.7142857142857" y="-50"/>
      <point x="631.7142857142857" y="-168" type="qcurve" smooth="yes"/>
      <point x="631.7142857142857" y="-327"/>
      <point x="436.7142857142857" y="-495"/>
      <point x="296.7142857142857" y="-495" type="qcurve" smooth="yes"/>
      <point x="250.71428571428572" y="-495"/>
      <point x="32.714285714285715" y="-485"/>
      <point x="8.714285714285714" y="-482" type="qcurve"/>
      <point x="8.714285714285714" y="-370" type="line"/>
      <point x="42.714285714285715" y="-372"/>
      <point x="75.71428571428571" y="-372"/>
      <point x="106.71428571428571" y="-372" type="qcurve" smooth="yes"/>
      <point x="171.71428571428572" y="-372"/>
      <point x="233.71428571428572" y="-281"/>
      <point x="233.71428571428572" y="-186" type="qcurve" smooth="yes"/>
      <point x="233.71428571428572" y="-87"/>
      <point x="77.71428571428571" y="244"/>
      <point x="77.71428571428571" y="345" type="qcurve" smooth="yes"/>
      <point x="77.71428571428571" y="422"/>
      <point x="186.71428571428572" y="538"/>
      <point x="304.7142857142857" y="558" type="qcurve"/>
      <point x="187.71428571428572" y="582"/>
      <point x="77.71428571428571" y="697"/>
      <point x="77.71428571428571" y="792" type="qcurve" smooth="yes"/>
      <point x="77.71428571428571" y="883"/>
      <point x="223.71428571428572" y="1109"/>
      <point x="223.71428571428572" y="1208" type="qcurve" smooth="yes"/>
      <point x="223.71428571428572" y="1303"/>
      <point x="158.71428571428572" y="1388"/>
      <point x="98.71428571428571" y="1388" type="qcurve" smooth="yes"/>
      <point x="66.71428571428571" y="1388"/>
      <point x="39.714285714285715" y="1388"/>
      <point x="6.7142857142857135" y="1386" type="qcurve"/>
      <point x="6.7142857142857135" y="1500" type="line"/>
      <point x="30.714285714285715" y="1503"/>
      <point x="265.7142857142857" y="1510"/>
      <point x="311.7142857142857" y="1510" type="qcurve" smooth="yes"/>
      <point x="424.7142857142857" y="1510"/>
      <point x="621.7142857142857" y="1343"/>
      <point x="621.7142857142857" y="1184" type="qcurve" smooth="yes"/>
      <point x="621.7142857142857" y="1066"/>
      <point x="471.7142857142857" y="834"/>
      <point x="471.7142857142857" y="743" type="qcurve" smooth="yes"/>
      <point x="471.7142857142857" y="663"/>
      <point x="547.7142857142857" y="610"/>
      <point x="596.7142857142857" y="598" type="qcurve"/>
      <point x="652.7142857142857" y="589" type="line"/>
    </contour>
  </outline>
</glyph>
<glyph name="asciitilde" format="1">
  <advance width="1024"/>
  <unicode hex="007E"/>
  <outline>
    <contour>
      <point x="18" y="631" type="line"/>
      <point x="75" y="724"/>
      <point x="272" y="836"/>
      <point x="352" y="836" type="qcurve"/>
      <point x="712" y="709" type="line"/>
      <point x="775" y="709"/>
      <point x="873" y="790"/>
      <point x="905" y="841" type="qcurve"/>
      <point x="1010" y="727" type="line"/>
      <point x="964" y="623"/>
      <point x="793" y="486"/>
      <point x="675" y="486" type="qcurve"/>
      <point x="334" y="607" type="line"/>
      <point x="273" y="607"/>
      <point x="142" y="554"/>
      <point x="89" y="506" type="qcurve"/>
    </contour>
  </outline>
</glyph>
<glyph name="cid41475" format="1">
  <advance width="2000"/>
  <unicode hex="9065"/>
  <outline>
    <contour>
      <point x="1662" y="1672" type="line"/>
      <point x="1481.402985074627" y="1622.7462686567164"/>
      <point x="881.7164179104477" y="1532.8358208955224"/>
      <point x="625" y="1500" type="qcurve"/>
      <point x="640" y="1422" type="line"/>
      <point x="905.6716417910447" y="1435.4328358208954"/>
      <point x="1476.4776119402986" y="1510.402985074627"/>
      <point x="1672" y="1541" type="qcurve"/>
      <point x="1710.8059701492537" y="1517.865671641791"/>
      <point x="1785.089552238806" y="1515.0597014925372"/>
      <point x="1803" y="1527" type="qcurve"/>
    </contour>
    <contour>
      <point x="1437" y="1017" type="line"/>
      <point x="1508.641791044776" y="1076.7014925373135"/>
      <point x="1635.5074626865671" y="1261.1492537313434"/>
      <point x="1687" y="1341" type="qcurve"/>
      <point x="1728.044776119403" y="1334.2835820895523"/>
      <point x="1784.7910447761194" y="1360.089552238806"/>
      <point x="1793" y="1378" type="qcurve"/>
      <point x="1598" y="1470" type="line"/>
      <point x="1553.2238805970148" y="1353.5820895522388"/>
      <point x="1424.2537313432836" y="1134.6119402985075"/>
      <point x="1375" y="1057" type="qcurve"/>
    </contour>
    <contour>
      <point x="1027" y="1402" type="line"/>
      <point x="1073.2686567164178" y="1345.2835820895523"/>
      <point x="1177.0149253731342" y="1182.6268656716418"/>
      <point x="1180" y="1108" type="qcurve"/>
      <point x="1268.0597014925372" y="1030.3880597014925"/>
      <point x="1350.6716417910447" y="1313.6119402985075"/>
      <point x="1085" y="1436" type="qcurve"/>
    </contour>
    <contour>
      <point x="134" y="1622" type="line"/>
      <point x="195.19402985074626" y="1539.910447761194"/>
      <point x="343.1044776119403" y="1312.5074626865671"/>
      <point x="364" y="1214" type="qcurve"/>
      <point x="462.5074626865671" y="1136.3880597014925"/>
      <point x="513.9104477611941" y="1467.910447761194"/>
      <point x="196" y="1650" type="qcurve"/>
    </contour>
    <contour>
      <point x="908.0298507462686" y="1040.358208955224"/>
      <point x="981.2388059701492" y="1299.2388059701493"/>
      <point x="729" y="1397" type="qcurve"/>
      <point x="670" y="1368" type="line"/>
      <point x="707.3134328358209" y="1317.2537313432836"/>
      <point x="803.5522388059702" y="1176.1791044776119"/>
      <point x="814" y="1112" type="qcurve"/>
    </contour>
    <contour>
      <point x="816.3432835820895" y="780.1194029850747"/>
      <point x="981.0746268656717" y="991.3582089552239"/>
      <point x="996" y="1013" type="qcurve"/>
      <point x="1043.7611940298507" y="1009.2686567164179"/>
      <point x="1092.0298507462687" y="1029.8358208955224"/>
      <point x="1098" y="1047" type="qcurve"/>
      <point x="896" y="1102" type="line"/>
      <point x="854.2089552238806" y="1004.2388059701493"/>
      <point x="702.1492537313433" y="819.6716417910447"/>
      <point x="632" y="754" type="qcurve"/>
      <point x="685" y="704" type="line"/>
    </contour>
    <contour>
      <point x="890" y="966" type="line"/>
      <point x="840" y="866" type="line"/>
      <point x="1176" y="866" type="line"/>
      <point x="1176" y="688" type="line"/>
      <point x="617" y="688" type="line"/>
      <point x="643" y="590" type="line"/>
      <point x="1176" y="590" type="line"/>
      <point x="1176" y="286" type="line"/>
      <point x="876" y="286" type="line"/>
      <point x="876" y="460" type="line"/>
      <point x="919.2835820895523" y="464.4776119402985"/>
      <point x="966.0149253731344" y="505.8805970149254"/>
      <point x="969" y="532" type="qcurve"/>
      <point x="752" y="556" type="line"/>
      <point x="752" y="254" type="line"/>
      <point x="735.5820895522388" y="243.55223880597015"/>
      <point x="704.955223880597" y="220.955223880597"/>
      <point x="696" y="212" type="qcurve"/>
      <point x="840" y="130" type="line"/>
      <point x="888" y="186" type="line"/>
      <point x="1608" y="186" type="line"/>
      <point x="1608" y="106" type="line"/>
      <point x="1632" y="106" type="line" smooth="yes"/>
      <point x="1666.3283582089553" y="106.0"/>
      <point x="1732.0" y="135.55223880597015"/>
      <point x="1732" y="146" type="qcurve" smooth="yes"/>
      <point x="1732" y="454" type="line"/>
      <point x="1773.7910447761194" y="458.4776119402985"/>
      <point x="1816.0149253731342" y="496.86567164179104"/>
      <point x="1819" y="520" type="qcurve"/>
      <point x="1608" y="542" type="line"/>
      <point x="1608" y="286" type="line"/>
      <point x="1302" y="286" type="line"/>
      <point x="1302" y="590" type="line"/>
      <point x="1836" y="590" type="line" smooth="yes"/>
      <point x="1864.358208955224" y="590.0"/>
      <point x="1896.0149253731342" y="615.5820895522388"/>
      <point x="1899" y="632" type="qcurve"/>
      <point x="1851.2388059701493" y="676.776119402985"/>
      <point x="1722.0" y="782.0"/>
      <point x="1722" y="782" type="qcurve"/>
      <point x="1613" y="644" type="line"/>
      <point x="1662" y="688" type="line"/>
      <point x="1302" y="688" type="line"/>
      <point x="1302" y="866" type="line"/>
      <point x="1714" y="866" type="line" smooth="yes"/>
      <point x="1739.3731343283582" y="866.0"/>
      <point x="1773.7761194029852" y="890.0895522388059"/>
      <point x="1779" y="908" type="qcurve"/>
      <point x="1732.7313432835822" y="951.2835820895523"/>
      <point x="1612.0" y="1052.0"/>
      <point x="1612" y="1052" type="qcurve"/>
      <point x="1507" y="923" type="line"/>
      <point x="1566" y="966" type="line"/>
    </contour>
    <contour>
      <point x="466" y="230" type="line"/>
      <point x="466" y="880" type="line"/>
      <point x="510.77611940298505" y="885.9701492537314"/>
      <point x="565.5522388059702" y="909.3283582089553"/>
      <point x="576" y="925" type="qcurve"/>
      <point x="392" y="1080" type="line"/>
      <point x="316" y="978" type="line"/>
      <point x="92" y="978" type="line"/>
      <point x="109" y="880" type="line"/>
      <point x="344" y="880" type="line"/>
      <point x="344" y="190" type="line"/>
    </contour>
    <contour>
      <point x="84" y="2" type="line"/>
      <point x="204" y="-150" type="line"/>
      <point x="218.92537313432837" y="-138.05970149253733"/>
      <point x="225.71641791044777" y="-99.14925373134328"/>
      <point x="219" y="-79" type="qcurve"/>
      <point x="251.08955223880596" y="-27.507462686567166"/>
      <point x="361.43283582089555" y="97.19402985074628"/>
      <point x="398" y="136" type="qcurve" smooth="yes"/>
      <point x="413.67164179104475" y="152.4179104477612"/>
      <point x="442.089552238806" y="155.91044776119404"/>
      <point x="460" y="138" type="qcurve" smooth="yes"/>
      <point x="611.4925373134329" y="-13.49253731343282"/>
      <point x="938.4179104477612" y="-104.0"/>
      <point x="1222" y="-104" type="qcurve" smooth="yes"/>
      <point x="1824" y="-104" type="line"/>
      <point x="1828.4776119402984" y="-62.2089552238806"/>
      <point x="1877.2238805970148" y="-6.955223880597014"/>
      <point x="1922" y="2" type="qcurve"/>
      <point x="1922" y="28" type="line"/>
      <point x="1745.8805970149253" y="20.537313432835823"/>
      <point x="1433.641791044776" y="18.0"/>
      <point x="1262" y="18" type="qcurve" smooth="yes"/>
      <point x="984.3880597014926" y="18.0"/>
      <point x="623.820895522388" y="99.16417910447763"/>
      <point x="488" y="232" type="qcurve" smooth="yes"/>
      <point x="473.82089552238807" y="246.17910447761193"/>
      <point x="446.4179104477612" y="260.0"/>
      <point x="430" y="260" type="qcurve" smooth="yes"/>
      <point x="407.6119402985075" y="260.0"/>
      <point x="345.94029850746267" y="218.49253731343282"/>
      <point x="284" y="167" type="qcurve" smooth="yes"/>
    </contour>
  </outline>
</glyph>
